<svg width="2042.638818359375px" height="360.807470703125px" xmlns="http://www.w3.org/2000/svg" viewBox="-771.3194091796875 -105.40373535156249 2042.638818359375 360.807470703125" style="background: rgba(0, 59, 100, 0);" preserveAspectRatio="xMidYMid"><defs><filter id="editing-golden" x="-100%" y="-100%" width="300%" height="300%"><feFlood flood-color="#000000" result="flood"></feFlood><feFlood flood-color="#dbff00" result="flood-light"></feFlood><feComposite operator="in" in="flood" in2="SourceAlpha" result="flood-comp"></feComposite><feGaussianBlur in="flood-comp" stdDeviation="3" result="blur"></feGaussianBlur><feOffset in="blur" dy="3" result="offset-blur"></feOffset><feComponentTransfer in="offset-blur" result="comp-blur"><feFuncA type="linear" slope="0.7" intercept="-0.1"></feFuncA></feComponentTransfer><feSpecularLighting surfaceScale="200" specularConstant="20" specularExponent="1" lighting-color="#fff" in="blur" result="specular"><fePointLight x="-250" y="-250" z="3500"></fePointLight></feSpecularLighting><feComponentTransfer in="specular" result="inspecular"><feFuncA type="linear" slope="-1" intercept="1"></feFuncA></feComponentTransfer><feComposite operator="in" in="flood-light" in2="inspecular" result="inspecular2"></feComposite><feComposite operator="in" in="inspecular2" in2="SourceAlpha" result="light"></feComposite><feMerge><feMergeNode in="comp-blur"></feMergeNode><feMergeNode in="SourceGraphic"></feMergeNode><feMergeNode in="light"></feMergeNode></feMerge></filter></defs><g filter="url(#editing-golden)"><g transform="translate(-485.36402583122253, 152.60000610351562)"><path d="M72.60 7.60L72.60 7.60L72.60 7.60Q68.60 7.60 66.40 4.90L66.40 4.90L66.40 4.90Q64.20 2.20 64.20-2.40L64.20-2.40L64.20-2.40Q64.20-5.40 64.90-9L64.90-9L64.90-9Q65.60-12.60 67.20-17.40L67.20-17.40L67.20-17.40Q68.80-22.20 69.90-25.40L69.90-25.40L69.90-25.40Q71-28.60 73.70-34.60L73.70-34.60L73.70-34.60Q76.40-40.60 77.30-42.60L77.30-42.60L77.30-42.60Q78.20-44.60 81.20-51L81.20-51L81.20-51Q84.20-57.40 84.20-57.40L84.20-57.40L84.20-57.40Q84.40-58 86.70-62.60L86.70-62.60L86.70-62.60Q89-67.20 90.50-70.20L90.50-70.20L90.50-70.20Q92-73.20 94.50-78.70L94.50-78.70L94.50-78.70Q97-84.20 98.70-88.60L98.70-88.60L98.70-88.60Q100.40-93 102.10-98.10L102.10-98.10L102.10-98.10Q103.80-103.20 104.70-107.60L104.70-107.60L104.70-107.60Q105.60-112 105.60-115.60L105.60-115.60L105.60-115.60Q105.60-121.20 102.60-123.10L102.60-123.10L102.60-123.10Q99.60-125 92-125L92-125L92-125Q73.80-125 55-114.40L55-114.40L55-114.40Q36.20-103.80 23.70-86.10L23.70-86.10L23.70-86.10Q11.20-68.40 11.20-49.80L11.20-49.80L11.20-49.80Q11.20-41.20 14.90-35.80L14.90-35.80L14.90-35.80Q18.60-30.40 26.20-30.40L26.20-30.40L26.20-30.40Q34.60-30.40 41.90-33.60L41.90-33.60L41.90-33.60Q49.20-36.80 53.10-40.60L53.10-40.60L53.10-40.60Q57-44.40 59.90-47.60L59.90-47.60L59.90-47.60Q62.80-50.80 63.40-50.80L63.40-50.80L63.40-50.80Q64-50.80 64.20-49L64.20-49L64.20-49Q62.20-40.40 51.60-33L51.60-33L51.60-33Q41-25.60 26.40-25.60L26.40-25.60L26.40-25.60Q16.80-25.60 9.80-32.40L9.80-32.40L9.80-32.40Q2.80-39.20 2.80-52L2.80-52L2.80-52Q2.80-68.80 11.90-83.90L11.90-83.90L11.90-83.90Q21-99 35-108.80L35-108.80L35-108.80Q49-118.60 64.90-124.30L64.90-124.30L64.90-124.30Q80.80-130 95-130L95-130L95-130Q115-130 115-114.80L115-114.80L115-114.80Q115-109.20 112.50-101.20L112.50-101.20L112.50-101.20Q110-93.20 107.20-87L107.20-87L107.20-87Q104.40-80.80 96.80-64.80L96.80-64.80L96.80-64.80Q94.80-60.60 93.80-58.40L93.80-58.40L93.80-58.40Q93.40-57.80 91.80-54.30L91.80-54.30L91.80-54.30Q90.20-50.80 88.70-47.70L88.70-47.70L88.70-47.70Q87.20-44.60 85.10-40L85.10-40L85.10-40Q83-35.40 81.40-31.30L81.40-31.30L81.40-31.30Q79.80-27.20 78.20-22.80L78.20-22.80L78.20-22.80Q76.60-18.40 75.80-14.60L75.80-14.60L75.80-14.60Q75-10.80 75-8.20L75-8.20L75-8.20Q75-2 79.60-2L79.60-2L79.60-2Q81.20-2 83.60-2.90L83.60-2.90L83.60-2.90Q86-3.80 89.40-5.80L89.40-5.80L89.40-5.80Q92.80-7.80 97-11L97-11L97-11Q116.80-26 145.20-64.50L145.20-64.50L145.20-64.50Q173.60-103 179.20-119.40L179.20-119.40L179.20-119.40Q182.20-123.20 186.60-123.20L186.60-123.20L186.60-123.20Q188.80-123.20 190.20-121.30L190.20-121.30L190.20-121.30Q191.60-119.40 191.60-115L191.60-115L191.60-115Q187.80-109.20 175.80-78L175.80-78L175.80-78Q163.80-46.80 159.80-33L159.80-33L159.80-33Q153.80-11.80 153.80-4.80L153.80-4.80L153.80-4.80Q153.80 2.20 158.80 2.20L158.80 2.20L158.80 2.20Q163.20 2.20 173.20-6L173.20-6L173.20-6Q175.60-8.20 176.60-8.20L176.60-8.20L176.60-8.20Q177.40-8.20 177.40-7.20L177.40-7.20L177.40-7.20Q177.40-6.20 176.70-4.70L176.70-4.70L176.70-4.70Q176-3.20 175.60-3L175.60-3L175.60-3Q159.40 11.60 149.60 11.60L149.60 11.60L149.60 11.60Q143.80 11.60 143.80 3L143.80 3L143.80 3Q143.80-6.40 152.80-36.60L152.80-36.60L152.80-36.60Q162-66.60 173.20-93L173.20-93L173.20-93Q159-69.80 134.80-42.70L134.80-42.70L134.80-42.70Q110.60-15.60 94.80-3.40L94.80-3.40L94.80-3.40Q87.80 2 82.20 4.80L82.20 4.80L82.20 4.80Q76.60 7.60 72.60 7.60ZM237.00-68.60L237.00-68.60L237.00-68.60Q236.60-64.60 231.80-57.20L231.80-57.20L231.80-57.20Q227.00-49.80 224.40-49.80L224.40-49.80L224.40-49.80Q223.60-49.80 223.60-51L223.60-51L223.60-51Q223.60-52.80 225.80-58.30L225.80-58.30L225.80-58.30Q228.00-63.80 228.00-65.40L228.00-65.40L228.00-65.40Q228.00-68.40 224.40-68.40L224.40-68.40L224.40-68.40Q223.80-68.40 217.80-67.40L217.80-67.40L217.80-67.40Q212.80-66.20 204.70-61L204.70-61L204.70-61Q196.60-55.80 196.60-49.60L196.60-49.60L196.60-49.60Q196.60-47.40 197.60-45.60L197.60-45.60L197.60-45.60Q200.20-40.40 206.70-36.80L206.70-36.80L206.70-36.80Q213.20-33.20 217.90-30L217.90-30L217.90-30Q222.60-26.80 222.60-21.60L222.60-21.60L222.60-21.60Q222.60-12.80 209.10-4.70L209.10-4.70L209.10-4.70Q195.60 3.40 186.00 3.40L186.00 3.40L186.00 3.40Q184.40 3.40 183.40 2.10L183.40 2.10L183.40 2.10Q182.40 0.80 182.40-0.60L182.40-0.60L182.40-0.60Q182.40-3 184.60-3L184.60-3L184.60-3Q191.20-3 203.10-7.10L203.10-7.10L203.10-7.10Q215.00-11.20 215.00-16L215.00-16L215.00-16Q215.00-18.80 210.50-22.60L210.50-22.60L210.50-22.60Q206.00-26.40 200.70-29.60L200.70-29.60L200.70-29.60Q195.40-32.80 190.90-37.30L190.90-37.30L190.90-37.30Q186.40-41.80 186.40-46L186.40-46L186.40-46Q186.40-49.40 188.80-52.40L188.80-52.40L188.80-52.40Q190.60-54.60 192.60-56.70L192.60-56.70L192.60-56.70Q194.60-58.80 196.40-60.40L196.40-60.40L196.40-60.40Q198.20-62 200.50-63.60L200.50-63.60L200.50-63.60Q202.80-65.20 204.60-66.40L204.60-66.40L204.60-66.40Q206.40-67.60 208.80-68.80L208.80-68.80L208.80-68.80Q211.20-70 212.60-70.70L212.60-70.70L212.60-70.70Q214.00-71.40 216.30-72.40L216.30-72.40L216.30-72.40Q218.60-73.40 219.50-73.70L219.50-73.70L219.50-73.70Q220.40-74 222.40-74.80L222.40-74.80L222.40-74.80Q224.40-75.60 224.60-75.60L224.60-75.60L224.60-75.60Q228.00-76.60 229.80-76.60L229.80-76.60L229.80-76.60Q237.00-76.60 237.00-68.60ZM283.00-62.20L283.00-62.20L283.00-62.20Q284.20-56 284.20-52.20L284.20-52.20L284.20-52.20Q284.20-47.80 281.20-44.70L281.20-44.70L281.20-44.70Q278.20-41.60 273.40-40.30L273.40-40.30L273.40-40.30Q268.60-39 264.80-38.50L264.80-38.50L264.80-38.50Q261.00-38 257.60-38L257.60-38L257.60-38Q255.60-38 253.10-38.10L253.10-38.10L253.10-38.10Q250.60-38.20 250.40-38.20L250.40-38.20L250.40-38.20Q243.80-21.40 243.80-11.80L243.80-11.80L243.80-11.80Q243.80-3.80 249.80-3.80L249.80-3.80L249.80-3.80Q254.00-3.80 259.60-9.10L259.60-9.10L259.60-9.10Q265.20-14.40 269.40-19.70L269.40-19.70L269.40-19.70Q273.60-25 274.40-25L274.40-25L274.40-25Q275.80-25 275.80-23.40L275.80-23.40L275.80-23.40Q275.80-17.80 264.80-7.90L264.80-7.90L264.80-7.90Q253.80 2 247.60 2L247.60 2L247.60 2Q242.60 2 238.50-1.10L238.50-1.10L238.50-1.10Q234.40-4.20 234.40-11.40L234.40-11.40L234.40-11.40Q234.40-13.60 235.00-16.60L235.00-16.60L235.00-16.60Q236.40-24.20 238.70-31.40L238.70-31.40L238.70-31.40Q241.00-38.60 241.20-40.20L241.20-40.20L241.20-40.20Q238.20-41 238.20-43.40L238.20-43.40L238.20-43.40Q238.20-45.60 241.60-45.60L241.60-45.60L243.00-45.60L243.00-45.60Q251.00-61.40 252.20-63.80L252.20-63.80L252.20-63.80Q257.80-74.40 273.60-74.40L273.60-74.40L273.60-74.40Q280.40-74.40 283.00-62.20ZM275.80-52.60L275.80-52.60L275.80-52.60Q275.80-57.60 274.80-61.20L274.80-61.20L274.80-61.20Q273.80-64.80 272.50-66.20L272.50-66.20L272.50-66.20Q271.20-67.60 269.80-67.60L269.80-67.60L269.80-67.60Q265.80-67.60 260.30-59L260.30-59L260.30-59Q254.80-50.40 252.20-43.80L252.20-43.80L252.20-43.80Q252.60-43.80 255.40-43.60L255.40-43.60L255.40-43.60Q258.20-43.40 260.20-43.40L260.20-43.40L260.20-43.40Q268.40-43.40 272.00-45.20L272.00-45.20L272.00-45.20Q275.60-47 275.80-52.60ZM366.20-129.60L366.20-129.60L366.20-129.60Q366.80-129.20 366.80-127.80L366.80-127.80L366.80-127.80Q366.80-124.60 363.70-115.90L363.70-115.90L363.70-115.90Q360.60-107.20 355.10-93.30L355.10-93.30L355.10-93.30Q349.60-79.40 346.60-70.60L346.60-70.60L346.60-70.60Q346.80-70.80 347.00-70.80L347.00-70.80L347.00-70.80Q347.80-70.80 348.70-69.40L348.70-69.40L348.70-69.40Q349.60-68 349.60-66.80L349.60-66.80L349.60-66.80Q349.60-65.60 347.60-65.60L347.60-65.60L347.60-65.60Q345.00-65.60 344.80-66.20L344.80-66.20L344.80-66.20Q340.80-57.20 334.70-37L334.70-37L334.70-37Q328.60-16.80 328.60-12.20L328.60-12.20L328.60-12.20Q328.60-7.60 331.20-7.60L331.20-7.60L331.20-7.60Q334.20-7.60 338.20-11.10L338.20-11.10L338.20-11.10Q342.20-14.60 345.30-18.20L345.30-18.20L345.30-18.20Q348.40-21.80 349.00-21.80L349.00-21.80L349.00-21.80Q349.60-21.80 349.60-20.80L349.60-20.80L349.60-20.80Q349.60-20.20 349.30-19.20L349.30-19.20L349.30-19.20Q349.00-18.20 348.70-17.50L348.70-17.50L348.70-17.50Q348.40-16.80 348.20-16.80L348.20-16.80L348.20-16.80Q343.60-12.20 335.40-6.30L335.40-6.30L335.40-6.30Q327.20-0.40 322.60-0.40L322.60-0.40L322.60-0.40Q318.80-0.40 318.80-4.60L318.80-4.60L318.80-4.60Q318.80-15.40 326.40-37.60L326.40-37.60L326.40-37.60Q317.80-25.40 305.50-12L305.50-12L305.50-12Q293.20 1.40 286.20 1.40L286.20 1.40L286.20 1.40Q282.00 1.40 282.00-4.60L282.00-4.60L282.00-4.60Q282.00-13.20 288.00-29.50L288.00-29.50L288.00-29.50Q294.00-45.80 302.30-59.10L302.30-59.10L302.30-59.10Q310.60-72.40 316.20-72.40L316.20-72.40L317.00-72.40L317.00-72.40Q318.40-72.40 320.30-73.90L320.30-73.90L320.30-73.90Q322.20-75.40 324.40-75.40L324.40-75.40L324.40-75.40Q327.40-75.40 332.90-73.80L332.90-73.80L332.90-73.80Q338.40-72.20 338.80-72.20L338.80-72.20L338.80-72.20Q339.00-72.20 339.00-72.40L339.00-72.40L339.00-72.40Q353.40-111.20 353.80-112.40L353.80-112.40L353.80-112.40Q351.60-112.40 351.60-114.80L351.60-114.80L351.60-114.80Q351.60-120.40 357.60-129.40L357.60-129.40L357.60-129.40Q358.40-131 360.80-131L360.80-131L360.80-131Q363.40-131 366.20-129.60ZM337.60-67.80L337.60-67.80L337.60-67.80Q337.60-70 325.80-70L325.80-70L325.80-70Q322.40-70 320.80-69.60L320.80-69.60L320.80-69.60Q316.40-68.40 303.90-45.40L303.90-45.40L303.90-45.40Q291.40-22.40 291.40-11.80L291.40-11.80L291.40-11.80Q291.40-8.60 293.40-8.60L293.40-8.60L293.40-8.60Q295.40-8.60 299.20-11.80L299.20-11.80L299.20-11.80Q303.00-15 306.20-18.60L306.20-18.60L306.20-18.60Q309.40-22.20 313.20-26.50L313.20-26.50L313.20-26.50Q317.00-30.80 317.20-31.20L317.20-31.20L317.20-31.20Q322.60-37.20 327.10-45.30L327.10-45.30L327.10-45.30Q331.60-53.40 334.50-60.40L334.50-60.40L334.50-60.40Q337.40-67.40 337.60-67.80ZM536.80-27.80L536.80-27.80L536.80-27.80Q537.60-27.80 537.60-26L537.60-26L537.60-26Q537.60-24.20 536.70-21.60L536.70-21.60L536.70-21.60Q535.80-19 534.60-17L534.60-17L534.60-17Q533.40-15 532.40-14L532.40-14L532.40-14Q520.00-1.40 499.00 6.80L499.00 6.80L499.00 6.80Q478.00 15 458.80 15L458.80 15L458.80 15Q427.20 15 410.60-0.20L410.60-0.20L410.60-0.20Q394.00-15.40 394.00-42L394.00-42L394.00-42Q394.00-44.20 394.20-46.60L394.20-46.60L394.20-46.60Q395.40-69 410.90-89.70L410.90-89.70L410.90-89.70Q426.40-110.40 449.00-122.50L449.00-122.50L449.00-122.50Q471.60-134.60 493.80-134.60L493.80-134.60L493.80-134.60Q516.00-134.60 523.60-124.60L523.60-124.60L523.60-124.60Q525.40-130 525.40-132.40L525.40-132.40L525.40-132.40Q525.40-132.80 525.00-134L525.00-134L525.00-134Q524.60-135.20 524.80-135.90L524.80-135.90L524.80-135.90Q525.00-136.60 526.40-136.60L526.40-136.60L526.40-136.60Q528.00-136.60 529.60-135.80L529.60-135.80L529.60-135.80Q531.20-135 531.20-133.80L531.20-133.80L531.20-133.80Q531.20-131.40 530.50-128.90L530.50-128.90L530.50-128.90Q529.80-126.40 528.70-123.10L528.70-123.10L528.70-123.10Q527.60-119.80 527.20-118.40L527.20-118.40L527.20-118.40Q529.00-113.60 529.00-107.40L529.00-107.40L529.00-107.40Q529.00-93.80 523.00-93.80L523.00-93.80L523.00-93.80Q519.60-93.80 518.20-95.20L518.20-95.20L518.20-95.20Q516.80-96.60 516.80-99.60L516.80-99.60L516.80-99.60Q516.80-101.40 517.00-103.10L517.00-103.10L517.00-103.10Q517.20-104.80 517.70-106.60L517.70-106.60L517.70-106.60Q518.20-108.40 518.60-109.70L518.60-109.70L518.60-109.70Q519.00-111 519.70-113.10L519.70-113.10L519.70-113.10Q520.40-115.20 520.80-116.20L520.80-116.20L520.80-116.20Q517.40-121.80 510.20-125.40L510.20-125.40L510.20-125.40Q503.00-129 493.80-129L493.80-129L493.80-129Q472.60-129 452.30-117.50L452.30-117.50L452.30-117.50Q432.00-106 418.80-86.60L418.80-86.60L418.80-86.60Q405.60-67.20 404.40-45.80L404.40-45.80L404.40-45.80Q404.40-44.20 404.40-42.60L404.40-42.60L404.40-42.60Q404.40-19.20 420.70-4.70L420.70-4.70L420.70-4.70Q437.00 9.80 461.20 9.80L461.20 9.80L461.20 9.80Q471.80 9.80 481.40 7.80L481.40 7.80L481.40 7.80Q491.00 5.80 497.30 3.20L497.30 3.20L497.30 3.20Q503.60 0.60 510.00-3.70L510.00-3.70L510.00-3.70Q516.40-8 519.40-10.80L519.40-10.80L519.40-10.80Q522.40-13.60 526.60-17.80L526.60-17.80L526.60-17.80Q530.80-22 531.40-22.60L531.40-22.60L531.40-22.60Q532.00-23.60 534.00-25.70L534.00-25.70L534.00-25.70Q536.00-27.80 536.80-27.80ZM605.80-16L605.80-16L605.80-16Q605.60-15.80 604.00-14.30L604.00-14.30L604.00-14.30Q602.40-12.80 601.40-12L601.40-12L601.40-12Q600.40-11.20 598.50-9.50L598.50-9.50L598.50-9.50Q596.60-7.80 595.20-6.80L595.20-6.80L595.20-6.80Q593.80-5.80 591.80-4.40L591.80-4.40L591.80-4.40Q589.80-3 588.30-2.30L588.30-2.30L588.30-2.30Q586.80-1.60 585.20-1L585.20-1L585.20-1Q583.60-0.40 582.20-0.40L582.20-0.40L582.20-0.40Q578.00-0.40 577.20-5.40L577.20-5.40L577.20-5.40Q577.20-13.80 583.80-36.40L583.80-36.40L583.80-36.40Q557.00 0.60 545.40 0.60L545.40 0.60L545.40 0.60Q540.60 0.60 540.60-6.60L540.60-6.60L540.60-6.60Q540.60-15.80 546.10-31.50L546.10-31.50L546.10-31.50Q551.60-47.20 559.60-59.90L559.60-59.90L559.60-59.90Q567.60-72.60 573.60-72.60L573.60-72.60L574.20-72.60L576.40-74.20L576.40-74.20Q578.20-76.20 582.00-76.20L582.00-76.20L582.00-76.20Q585.00-76.20 590.40-74.60L590.40-74.60L590.40-74.60Q595.80-73 596.40-73L596.40-73L596.40-73Q597.20-73 598.50-74.60L598.50-74.60L598.50-74.60Q599.80-76.20 601.60-76.20L601.60-76.20L601.60-76.20Q606.60-76.20 606.60-71.80L606.60-71.80L606.60-71.80Q606.60-70 605.90-67.80L605.90-67.80L605.90-67.80Q605.20-65.60 603.90-62.70L603.90-62.70L603.90-62.70Q602.60-59.80 602.40-59.20L602.40-59.20L602.40-59.20Q602.20-58.80 600.50-58L600.50-58L600.50-58Q598.80-57.20 598.60-56.60L598.60-56.60L598.60-56.60Q594.20-44.20 590.80-30.10L590.80-30.10L590.80-30.10Q587.40-16 587.40-12.80L587.40-12.80L587.40-12.80Q587.40-7.80 590.20-7.80L590.20-7.80L590.20-7.80Q593.00-7.80 597.10-11.20L597.10-11.20L597.10-11.20Q601.20-14.60 604.20-18L604.20-18L604.20-18Q607.20-21.40 607.40-21.40L607.40-21.40L607.40-21.40Q607.80-21.40 607.80-20.60L607.80-20.60L607.80-20.60Q607.80-17.60 605.80-16ZM593.20-69.20L592.60-69.20L592.60-69.20Q591.40-69.20 588.50-69.60L588.50-69.60L588.50-69.60Q585.60-70 583.60-70L583.60-70L583.60-70Q580.80-70 577.60-69.20L577.60-69.20L577.60-69.20Q572.60-67.80 561.20-45.50L561.20-45.50L561.20-45.50Q549.80-23.20 549.80-12.20L549.80-12.20L549.80-12.20Q549.80-8.80 551.80-8.80L551.80-8.80L551.80-8.80Q556.00-8.80 566.70-21L566.70-21L566.70-21Q577.40-33.20 580.80-38.40L580.80-38.40L580.80-38.40Q585.80-46.40 590.00-55.70L590.00-55.70L590.00-55.70Q594.20-65 594.20-68L594.20-68L594.20-68Q594.20-69.20 593.20-69.20L593.20-69.20ZM664.20-59L664.20-59L664.20-59Q662.60-56.80 659.90-54.70L659.90-54.70L659.90-54.70Q657.20-52.60 655.80-52.60L655.80-52.60L655.80-52.60Q654.60-52.60 654.60-53.80L654.60-53.80L654.60-53.80Q654.60-54.60 656.50-59.40L656.50-59.40L656.50-59.40Q658.40-64.20 658.40-66L658.40-66L658.40-66Q658.40-67.40 657.40-67.40L657.40-67.40L657.40-67.40Q650.40-67.40 636.70-45.80L636.70-45.80L636.70-45.80Q623-24.20 616.40-3.60L616.40-3.60L616.40-3.60Q615.20-2 612.60-0.40L612.60-0.40L612.60-0.40Q610 1.20 608.20 1.20L608.20 1.20L608.20 1.20Q607 1.20 606.40 0.20L606.40 0.20L606.40 0.20Q606.40-5.20 607.70-9.60L607.70-9.60L607.70-9.60Q609-14 611-14.80L611-14.80L611-14.80Q615.40-31.40 617.20-39.60L617.20-39.60L619.20-48L619.20-48Q619.60-49.40 619.60-51.20L619.60-51.20L619.60-51.20Q619.60-52.20 619.20-53L619.20-53L619.20-53Q618.80-53.80 618.80-54.60L618.80-54.60L618.80-54.60Q618.80-55.80 619.20-56.80L619.20-56.80L619.20-56.80Q622.40-69.40 625.70-74L625.70-74L625.70-74Q629-78.60 635.40-78.60L635.40-78.60L635.40-78.60Q637.80-78.60 638.20-77L638.20-77L638.20-77Q638-76.40 635.30-70L635.30-70L635.30-70Q632.60-63.60 630.30-58L630.30-58L630.30-58Q628-52.40 625.20-43.80L625.20-43.80L625.20-43.80Q622.40-35.20 620.80-28L620.80-28L620.80-28Q627.40-41 641.20-59.30L641.20-59.30L641.20-59.30Q655-77.60 664-77.60L664-77.60L664-77.60Q668.80-77.60 668.80-71.60L668.80-71.60L668.80-71.60Q668.80-65.40 664.20-59ZM730.60 10.80L730.60 10.80L730.60 10.80Q740 10.80 750.10 8.60L750.10 8.60L750.10 8.60Q760.20 6.40 768.10 1.40L768.10 1.40L768.10 1.40Q776-3.60 776-10L776-10L776-10Q776-11 775.80-11.80L775.80-11.80L775.80-11.80Q774.80-18.40 766.20-22.80L766.20-22.80L766.20-22.80Q757.60-27.20 746.30-30.30L746.30-30.30L746.30-30.30Q735-33.40 723.90-37.20L723.90-37.20L723.90-37.20Q712.80-41 705.10-48.60L705.10-48.60L705.10-48.60Q697.40-56.20 697.40-67.60L697.40-67.60L697.40-67.60Q697.40-82.20 705.50-94.70L705.50-94.70L705.50-94.70Q713.60-107.20 726.50-115.50L726.50-115.50L726.50-115.50Q739.40-123.80 753.90-129.20L753.90-129.20L753.90-129.20Q768.40-134.60 783-136.40L783-136.40L783-136.40Q791.60-137.60 799.20-137.60L799.20-137.60L799.20-137.60Q833.40-137.60 833.40-115L833.40-115L833.40-115Q833.40-103.20 822.20-92.20L822.20-92.20L822.20-92.20Q811-81.20 796-81.20L796-81.20L796-81.20Q794.60-81.20 793.90-81.70L793.90-81.70L793.90-81.70Q793.20-82.20 793.20-82.80L793.20-82.80L793.20-82.80Q793.20-83.20 793.40-83.70L793.40-83.70L793.40-83.70Q793.60-84.20 794.10-84.50L794.10-84.50L794.10-84.50Q794.60-84.80 795.20-85L795.20-85L795.20-85Q795.80-85.20 796.60-85.20L796.60-85.20L796.60-85.20Q806.80-85.20 816-92.90L816-92.90L816-92.90Q825.20-100.60 825.20-112L825.20-112L825.20-112Q825.20-117.80 822.70-121.90L822.70-121.90L822.70-121.90Q820.20-126 815.80-128.30L815.80-128.30L815.80-128.30Q811.40-130.60 806.30-131.60L806.30-131.60L806.30-131.60Q801.20-132.60 795.20-132.60L795.20-132.60L795.20-132.60Q792.20-132.60 789.30-132.40L789.30-132.40L789.30-132.40Q786.40-132.20 783.60-131.80L783.60-131.80L783.60-131.80Q764.60-129.40 747.90-122.10L747.90-122.10L747.90-122.10Q731.20-114.80 719.80-101.70L719.80-101.70L719.80-101.70Q708.40-88.60 708.40-72.60L708.40-72.60L708.40-72.60Q708.40-63 713.80-56.10L713.80-56.10L713.80-56.10Q719.20-49.20 727.30-46L727.30-46L727.30-46Q735.40-42.80 745-39.80L745-39.80L745-39.80Q754.60-36.80 763.10-34.80L763.10-34.80L763.10-34.80Q771.60-32.80 777.80-28.60L777.80-28.60L777.80-28.60Q784-24.40 785-18.40L785-18.40L785.20-16L785.20-16Q785.20-7.80 776.30 0L776.30 0L776.30 0Q767.40 7.80 753 12.70L753 12.70L753 12.70Q738.60 17.60 723.40 17.60L723.40 17.60L723.40 17.60Q703 17.60 703 2.80L703 2.80L703 2.80Q703-5.20 708.40-5.20L708.40-5.20L708.40-5.20Q709-5.20 709.40-3.90L709.40-3.90L709.40-3.90Q709.80-2.60 710.40-0.50L710.40-0.50L710.40-0.50Q711 1.60 711.80 3L711.80 3L711.80 3Q713.20 5.40 715.10 7L715.10 7L715.10 7Q717 8.60 719.40 9.40L719.40 9.40L719.40 9.40Q721.80 10.20 724.50 10.50L724.50 10.50L724.50 10.50Q727.20 10.80 730.60 10.80ZM876.80-70.80L876.80-70.80L876.80-70.80Q866-53.40 856.70-32.10L856.70-32.10L856.70-32.10Q847.40-10.80 847.40 1L847.40 1L847.40 1Q847.40 3.80 849 3.80L849 3.80L849 3.80Q849.60 3.80 852.50 2L852.50 2L852.50 2Q855.40 0.20 856 0.20L856 0.20L856 0.20Q857 0.20 857 1.40L857 1.40L857 1.40Q857 3.80 853.20 6.50L853.20 6.50L853.20 6.50Q849.40 9.20 845.80 9.20L845.80 9.20L845.80 9.20Q840.80 9.20 840.80 1.80L840.80 1.80L840.80 1.80Q840.80-6.80 846.40-22.50L846.40-22.50L846.40-22.50Q852-38.20 857.60-51.10L857.60-51.10L857.60-51.10Q863.20-64 863.20-65.60L863.20-65.60L863.20-65.60Q863.20-66 863-66L863-66L863-66Q862.20-66 859.40-63L859.40-63L859.40-63Q846.80-48.80 838.20-35.30L838.20-35.30L838.20-35.30Q829.60-21.80 826.70-14.60L826.70-14.60L826.70-14.60Q823.80-7.40 820.70-3.10L820.70-3.10L820.70-3.10Q817.60 1.20 813.40 1.20L813.40 1.20L813.40 1.20Q811.60 1.20 811.60-0.80L811.60-0.80L811.60-0.80Q811.60-2.60 812.60-4.80L812.60-4.80L812.60-4.80Q818-18.80 823-33.80L823-33.80L823-33.80Q828-48.80 833.70-67.30L833.70-67.30L833.70-67.30Q839.40-85.80 843-96.60L843-96.60L843-96.60Q843.60-98.40 843.60-100.20L843.60-100.20L843.60-100.20Q843.60-101 843.40-101.70L843.40-101.70L843.40-101.70Q843.20-102.40 843.20-102.80L843.20-102.80L843.20-102.80Q843.20-103.60 843.80-105.40L843.80-105.40L843.80-105.40Q848.40-118.20 851.60-122.30L851.60-122.30L851.60-122.30Q854.80-126.40 861.40-126.40L861.40-126.40L861.40-126.40Q864-126.40 864.40-124.60L864.40-124.60L864.40-124.60Q842.60-80.60 829-31L829-31L829-31Q858.80-77.60 874-77.60L874-77.60L874-77.60Q878.20-77.60 878.20-74.80L878.20-74.80L878.20-74.80Q878.20-73 876.80-70.80ZM928.80-59.60L928.80-59.60Q932.60-59 932.60-57.40L932.60-57.40L932.60-57.40Q932.60-55.80 929.60-54.30L929.60-54.30L929.60-54.30Q926.60-52.80 924.20-52.80L924.20-52.80L924.20-52.80Q924.20-29.40 912-12.80L912-12.80L912-12.80Q899.80 3.80 887.80 3.80L887.80 3.80L887.80 3.80Q876.20 3.80 876.20-13L876.20-13L876.20-13Q876.20-17.60 877-22.20L877-22.20L877-22.20Q878-27.40 880.60-35.60L880.60-35.60L880.60-35.60Q883.20-43.80 887.40-53.40L887.40-53.40L887.40-53.40Q891.60-63 897.70-69.70L897.70-69.70L897.70-69.70Q903.80-76.40 910-76.40L910-76.40L911.40-76.40L911.40-76.40Q911.40-79.20 913-81.20L913-81.20L913-81.20Q914.60-83.20 917.40-83.20L917.40-83.20L917.40-83.20Q920.20-83 922.40-71.50L922.40-71.50L922.40-71.50Q924.60-60 928.80-59.60L928.80-59.60ZM918.60-54.40L918.60-54.40L918.60-54.40Q916.80-55.40 914.20-61.50L914.20-61.50L914.20-61.50Q911.60-67.60 910.60-67.60L910.60-67.60L910.60-67.60Q904.40-67.60 896.20-49.30L896.20-49.30L896.20-49.30Q888-31 886-20.40L886-20.40L886-20.40Q885.20-15.80 885.20-12L885.20-12L885.20-12Q885.20-2.20 890.80-2.20L890.80-2.20L890.80-2.20Q898.80-2.20 908.70-18.50L908.70-18.50L908.70-18.50Q918.60-34.80 918.60-54.40ZM1031-72.20L1031-72.20L1031-72.20Q1031-71 1027.40-63L1027.40-63L1027.40-63Q1023.80-55 1017.40-42.80L1017.40-42.80L1017.40-42.80Q1011-30.60 1004.80-20.60L1004.80-20.60L1004.80-20.60Q1002.40-16.80 1001.10-14.30L1001.10-14.30L1001.10-14.30Q999.80-11.80 999.40-10.70L999.40-10.70L999.40-10.70Q999-9.60 997.90-5.80L997.90-5.80L997.90-5.80Q996.80-2 996 0.80L996 0.80L996 0.80Q995.20 2.20 993.80 2.20L993.80 2.20L993.80 2.20Q991.80 2.20 989.70-0.30L989.70-0.30L989.70-0.30Q987.60-2.80 987.60-5L987.60-5L987.60-5Q987.60-5.80 987.70-7.50L987.70-7.50L987.70-7.50Q987.80-9.20 987.80-10.20L987.80-10.20L987.80-10.20Q987.80-37.60 976.80-64.20L976.80-64.20L976.80-64.20Q969.60-60 956.30-33.70L956.30-33.70L956.30-33.70Q943-7.40 943 1.60L943 1.60L943 1.60Q942.40 3.80 940.80 3.80L940.80 3.80L940.80 3.80Q938.80 3.80 936.40 1L936.40 1L936.40 1Q934-1.80 934-4L934-4L934-4Q934-4.60 934.20-4.80L934.20-4.80L934.20-4.80Q942.60-25.40 942.60-42.80L942.60-42.80L942.60-42.80Q942.60-51.40 941.20-56.90L941.20-56.90L941.20-56.90Q939.80-62.40 938-64.40L938-64.40L938-64.40Q936.20-66.40 934.20-66.40L934.20-66.40L934.20-66.40Q933.80-66.40 931.40-64.80L931.40-64.80L931.40-64.80Q929-63.20 928.20-63.20L928.20-63.20L928.20-63.20Q927.60-63.20 927.60-63.80L927.60-63.80L927.60-63.80Q927.60-66.60 932.80-71.20L932.80-71.20L932.80-71.20Q938-75.80 940.80-75.80L940.80-75.80L940.80-75.80Q949-75.80 949-47.60L949-47.60L949-47.60Q949-41.60 948.40-31.40L948.40-31.40L948.40-31.40Q954.60-42.80 965.10-58.80L965.10-58.80L965.10-58.80Q975.60-74.80 979.80-74.80L979.80-74.80L979.80-74.80Q981.40-77 983.80-77L983.80-77L983.80-77Q987.60-77 987.60-72.60L987.60-72.60L987.60-72.60Q987.60-72 987.40-70.90L987.40-70.90L987.40-70.90Q987.20-69.80 987.20-69.20L987.20-69.20L987.20-69.20Q987.20-68 989-62.80L989-62.80L989-62.80Q990.60-58 993-47.70L993-47.70L993-47.70Q995.40-37.40 997.20-29.70L997.20-29.70L997.20-29.70Q999-22 999.20-22L999.20-22L999.20-22Q1002-22 1011.60-40.80L1011.60-40.80L1011.60-40.80Q1021.20-59.60 1021.80-69.80L1021.80-69.80L1021.80-69.80Q1021.80-71 1021-73.40L1021-73.40L1021-73.40Q1020.20-75.80 1020.20-77.20L1020.20-77.20L1020.20-77.20Q1020.20-79.60 1022.20-81.80L1022.20-81.80L1022.40-81.80L1022.40-81.80Q1024.60-83.60 1025.80-83.60L1025.80-83.60L1025.80-83.60Q1028.40-83.60 1029.70-79.70L1029.70-79.70L1029.70-79.70Q1031-75.80 1031-72.20ZM1081.80-59L1081.80-59L1081.80-59Q1080.20-56.80 1077.50-54.70L1077.50-54.70L1077.50-54.70Q1074.80-52.60 1073.40-52.60L1073.40-52.60L1073.40-52.60Q1072.20-52.60 1072.20-53.80L1072.20-53.80L1072.20-53.80Q1072.20-54.60 1074.10-59.40L1074.10-59.40L1074.10-59.40Q1076-64.20 1076-66L1076-66L1076-66Q1076-67.40 1075-67.40L1075-67.40L1075-67.40Q1068-67.40 1054.30-45.80L1054.30-45.80L1054.30-45.80Q1040.60-24.20 1034-3.60L1034-3.60L1034-3.60Q1032.80-2 1030.20-0.40L1030.20-0.40L1030.20-0.40Q1027.60 1.20 1025.80 1.20L1025.80 1.20L1025.80 1.20Q1024.60 1.20 1024 0.20L1024 0.20L1024 0.20Q1024-5.20 1025.30-9.60L1025.30-9.60L1025.30-9.60Q1026.60-14 1028.60-14.80L1028.60-14.80L1028.60-14.80Q1033-31.40 1034.80-39.60L1034.80-39.60L1036.80-48L1036.80-48Q1037.20-49.40 1037.20-51.20L1037.20-51.20L1037.20-51.20Q1037.20-52.20 1036.80-53L1036.80-53L1036.80-53Q1036.40-53.80 1036.40-54.60L1036.40-54.60L1036.40-54.60Q1036.40-55.80 1036.80-56.80L1036.80-56.80L1036.80-56.80Q1040-69.40 1043.30-74L1043.30-74L1043.30-74Q1046.60-78.60 1053-78.60L1053-78.60L1053-78.60Q1055.40-78.60 1055.80-77L1055.80-77L1055.80-77Q1055.60-76.40 1052.90-70L1052.90-70L1052.90-70Q1050.20-63.60 1047.90-58L1047.90-58L1047.90-58Q1045.60-52.40 1042.80-43.80L1042.80-43.80L1042.80-43.80Q1040-35.20 1038.40-28L1038.40-28L1038.40-28Q1045-41 1058.80-59.30L1058.80-59.30L1058.80-59.30Q1072.60-77.60 1081.60-77.60L1081.60-77.60L1081.60-77.60Q1086.40-77.60 1086.40-71.60L1086.40-71.60L1086.40-71.60Q1086.40-65.40 1081.80-59ZM1133.60-59.60L1133.60-59.60Q1137.40-59 1137.40-57.40L1137.40-57.40L1137.40-57.40Q1137.40-55.80 1134.40-54.30L1134.40-54.30L1134.40-54.30Q1131.40-52.80 1129.00-52.80L1129.00-52.80L1129.00-52.80Q1129.00-29.40 1116.80-12.80L1116.80-12.80L1116.80-12.80Q1104.60 3.80 1092.60 3.80L1092.60 3.80L1092.60 3.80Q1081.00 3.80 1081.00-13L1081.00-13L1081.00-13Q1081.00-17.60 1081.80-22.20L1081.80-22.20L1081.80-22.20Q1082.80-27.40 1085.40-35.60L1085.40-35.60L1085.40-35.60Q1088.00-43.80 1092.20-53.40L1092.20-53.40L1092.20-53.40Q1096.40-63 1102.50-69.70L1102.50-69.70L1102.50-69.70Q1108.60-76.40 1114.80-76.40L1114.80-76.40L1116.20-76.40L1116.20-76.40Q1116.20-79.20 1117.80-81.20L1117.80-81.20L1117.80-81.20Q1119.40-83.20 1122.20-83.20L1122.20-83.20L1122.20-83.20Q1125.00-83 1127.20-71.50L1127.20-71.50L1127.20-71.50Q1129.40-60 1133.60-59.60L1133.60-59.60ZM1123.40-54.40L1123.40-54.40L1123.40-54.40Q1121.60-55.40 1119.00-61.50L1119.00-61.50L1119.00-61.50Q1116.40-67.60 1115.40-67.60L1115.40-67.60L1115.40-67.60Q1109.20-67.60 1101.00-49.30L1101.00-49.30L1101.00-49.30Q1092.80-31 1090.80-20.40L1090.80-20.40L1090.80-20.40Q1090.00-15.80 1090.00-12L1090.00-12L1090.00-12Q1090.00-2.20 1095.60-2.20L1095.60-2.20L1095.60-2.20Q1103.60-2.20 1113.50-18.50L1113.50-18.50L1113.50-18.50Q1123.40-34.80 1123.40-54.40ZM1185.80-59.60L1185.80-59.60Q1189.60-59 1189.60-57.40L1189.60-57.40L1189.60-57.40Q1189.60-55.80 1186.60-54.30L1186.60-54.30L1186.60-54.30Q1183.60-52.80 1181.20-52.80L1181.20-52.80L1181.20-52.80Q1181.20-29.40 1169.00-12.80L1169.00-12.80L1169.00-12.80Q1156.80 3.80 1144.80 3.80L1144.80 3.80L1144.80 3.80Q1133.20 3.80 1133.20-13L1133.20-13L1133.20-13Q1133.20-17.60 1134.00-22.20L1134.00-22.20L1134.00-22.20Q1135.00-27.40 1137.60-35.60L1137.60-35.60L1137.60-35.60Q1140.20-43.80 1144.40-53.40L1144.40-53.40L1144.40-53.40Q1148.60-63 1154.70-69.70L1154.70-69.70L1154.70-69.70Q1160.80-76.40 1167.00-76.40L1167.00-76.40L1168.40-76.40L1168.40-76.40Q1168.40-79.20 1170.00-81.20L1170.00-81.20L1170.00-81.20Q1171.60-83.20 1174.40-83.20L1174.40-83.20L1174.40-83.20Q1177.20-83 1179.40-71.50L1179.40-71.50L1179.40-71.50Q1181.60-60 1185.80-59.60L1185.80-59.60ZM1175.60-54.40L1175.60-54.40L1175.60-54.40Q1173.80-55.40 1171.20-61.50L1171.20-61.50L1171.20-61.50Q1168.60-67.60 1167.60-67.60L1167.60-67.60L1167.60-67.60Q1161.40-67.60 1153.20-49.30L1153.20-49.30L1153.20-49.30Q1145.00-31 1143.00-20.40L1143.00-20.40L1143.00-20.40Q1142.20-15.80 1142.20-12L1142.20-12L1142.20-12Q1142.20-2.20 1147.80-2.20L1147.80-2.20L1147.80-2.20Q1155.80-2.20 1165.70-18.50L1165.70-18.50L1165.70-18.50Q1175.60-34.80 1175.60-54.40ZM1289.20-72.60L1289.20-72.60L1289.20-72.60Q1265.00-29.80 1260.00-3.60L1260.00-3.60L1260.00-3.60Q1259.40-1.60 1259.40 0.40L1259.40 0.40L1259.40 0.40Q1259.40 3.20 1261.20 3.20L1261.20 3.20L1261.20 3.20Q1262.00 3.20 1265.30 1.30L1265.30 1.30L1265.30 1.30Q1268.60-0.60 1269.20-0.60L1269.20-0.60L1269.20-0.60Q1270.20-0.60 1270.20 0.60L1270.20 0.60L1270.20 0.60Q1270.20 3.20 1265.80 6L1265.80 6L1265.80 6Q1261.40 8.80 1257.00 8.80L1257.00 8.80L1257.00 8.80Q1254.00 8.80 1252.60 6.90L1252.60 6.90L1252.60 6.90Q1251.20 5 1251.20 0.40L1251.20 0.40L1251.20 0.40Q1251.20-4.20 1253.20-11.20L1253.20-11.20L1253.20-11.20Q1255.20-18.20 1257.20-23.10L1257.20-23.10L1257.20-23.10Q1259.20-28 1262.90-36.20L1262.90-36.20L1262.90-36.20Q1266.60-44.40 1267.20-46L1267.20-46L1267.20-46Q1273.40-60.60 1273.40-63.40L1273.40-63.40L1273.40-63.40Q1273.40-64.80 1272.40-64.80L1272.40-64.80L1272.40-64.80Q1271.80-64.80 1270.20-63.80L1270.20-63.80L1270.20-63.80Q1259.80-56.80 1248.20-41.20L1248.20-41.20L1248.20-41.20Q1236.60-25.60 1231.00-4.80L1231.00-4.80L1231.00-4.80Q1230.60-3.20 1226.80-1.10L1226.80-1.10L1226.80-1.10Q1223.00 1 1220.40 1L1220.40 1L1220.40 1Q1218.00 1 1218.00-0.80L1218.00-0.80L1218.00-1.20L1218.20-1.60L1218.20-1.60Q1223.80-28 1237.00-63L1237.00-63L1237.00-63Q1238.00-65.60 1238.00-66.60L1238.00-66.60L1238.00-66.60Q1238.00-67.60 1237.40-67.60L1237.40-67.60L1237.40-67.60Q1236.40-67.60 1234.40-65.40L1234.40-65.40L1234.40-65.40Q1221.60-50.60 1211.80-36L1211.80-36L1211.80-36Q1202.00-21.40 1198.10-13.80L1198.10-13.80L1198.10-13.80Q1194.20-6.20 1190.40-1.40L1190.40-1.40L1190.40-1.40Q1186.60 3.40 1182.40 3.40L1182.40 3.40L1182.40 3.40Q1180.80 3.40 1180.80 1.80L1180.80 1.80L1180.80 1.80Q1180.80 0.40 1181.70-1.80L1181.70-1.80L1181.70-1.80Q1182.60-4 1183.70-6.20L1183.70-6.20L1183.70-6.20Q1184.80-8.40 1185.00-8.80L1185.00-8.80L1185.00-8.80Q1188.20-16.60 1198.20-47.80L1198.20-47.80L1198.20-47.80Q1199.00-50.20 1199.00-51.40L1199.00-51.40L1199.00-51.40Q1199.00-52.20 1198.70-52.90L1198.70-52.90L1198.70-52.90Q1198.40-53.60 1198.40-54L1198.40-54L1198.40-54Q1198.40-54.80 1199.00-56.60L1199.00-56.60L1199.00-56.60Q1203.40-69.20 1206.80-73.40L1206.80-73.40L1206.80-73.40Q1210.20-77.60 1216.60-77.60L1216.60-77.60L1216.60-77.60Q1219.20-77.60 1219.60-75.80L1219.60-75.80L1219.60-75.80Q1203.20-42.20 1200.00-27.80L1200.00-27.80L1200.00-27.80Q1233.40-81 1250.60-81L1250.60-81L1250.60-81Q1254.60-81 1254.60-78.40L1254.60-78.40L1254.60-78.40Q1254.60-76.60 1253.20-74.40L1253.20-74.40L1253.20-74.40Q1235.80-45 1231.20-22.60L1231.20-22.60L1231.20-22.60Q1241.00-42 1249.90-52.70L1249.90-52.70L1249.90-52.70Q1258.80-63.40 1276.40-76.20L1276.40-76.20L1276.40-76.20Q1280.20-79.20 1286.40-79.20L1286.40-79.20L1286.40-79.20Q1290.40-79.20 1290.40-76.40L1290.40-76.40L1290.40-76.40Q1290.40-75 1289.20-72.60ZM1372.60-124.60L1372.60-124.60L1372.60-124.60Q1361.60-101.80 1350.20-69.50L1350.20-69.50L1350.20-69.50Q1338.80-37.20 1333.40-13L1333.40-13L1333.40-13Q1333.20-12.40 1333.20-11.40L1333.20-11.40L1333.20-11.40Q1333.20-9 1335.20-9L1335.20-9L1335.20-9Q1336.40-9 1341.70-12L1341.70-12L1341.70-12Q1347.00-15 1348.40-15L1348.40-15L1348.40-15Q1349.60-15 1350.20-14.20L1350.20-14.20L1350.20-14.20Q1350.20-11.80 1340.20-5.30L1340.20-5.30L1340.20-5.30Q1330.20 1.20 1326.00 1.20L1326.00 1.20L1326.00 1.20Q1322.20 1.20 1322.20-2.40L1322.20-2.40L1322.20-2.40Q1322.20-4.40 1323.00-6.60L1323.00-6.60L1323.00-6.60Q1328.20-20.80 1332.70-34.80L1332.70-34.80L1332.70-34.80Q1337.20-48.80 1343.00-68.10L1343.00-68.10L1343.00-68.10Q1348.80-87.40 1351.60-96.60L1351.60-96.60L1351.60-96.60Q1352.20-98.40 1352.20-100.20L1352.20-100.20L1352.20-100.20Q1352.20-101 1351.90-101.70L1351.90-101.70L1351.90-101.70Q1351.60-102.40 1351.60-103L1351.60-103L1351.60-103Q1351.60-103.60 1352.20-105.40L1352.20-105.40L1352.20-105.40Q1356.20-118 1359.60-122.20L1359.60-122.20L1359.60-122.20Q1363.00-126.40 1369.60-126.40L1369.60-126.40L1369.60-126.40Q1372.40-126.40 1372.60-124.60ZM1372.00-75L1384.80-75L1385.60-77.80L1385.60-77.80Q1386.20-80.20 1386.20-81.20L1386.20-81.20L1386.20-81.20Q1386.20-82 1385.80-82.70L1385.80-82.70L1385.80-82.70Q1385.40-83.40 1385.40-84L1385.40-84L1385.40-84Q1385.40-84.60 1386.00-86.40L1386.00-86.40L1386.00-86.40Q1390.00-99.20 1393.30-103.40L1393.30-103.40L1393.30-103.40Q1396.60-107.60 1403.00-107.60L1403.00-107.60L1403.00-107.60Q1405.80-107.60 1406.20-105.80L1406.20-105.80L1406.20-105.80Q1401.80-96.40 1394.00-75L1394.00-75L1413.40-75L1413.40-75Q1419.00-75 1419.00-73.80L1419.00-73.80L1419.00-73.80Q1419.00-71.80 1409.80-70.70L1409.80-70.70L1409.80-70.70Q1400.60-69.60 1392.20-69.60L1392.20-69.60L1392.20-69.60Q1382.20-41.40 1376.00-15.60L1376.00-15.60L1376.00-15.60Q1375.00-11.60 1375.00-9.80L1375.00-9.80L1375.00-9.80Q1375.00-6.40 1377.20-6.40L1377.20-6.40L1377.20-6.40Q1381.20-6.40 1388.90-13.50L1388.90-13.50L1388.90-13.50Q1396.60-20.60 1397.20-20.60L1397.20-20.60L1397.20-20.60Q1398.20-20.60 1398.20-19.40L1398.20-19.40L1398.20-19.40Q1398.20-16 1396.00-15L1396.00-15L1396.00-15Q1377.60 1.60 1370.20 1.60L1370.20 1.60L1370.20 1.60Q1365.60 1.60 1365.60-4.20L1365.60-4.20L1365.60-4.20Q1365.60-7.40 1370.40-23L1370.40-23L1370.40-23Q1371.00-25 1383.20-68.80L1383.20-68.80L1383.20-68.80Q1378.40-68 1369.80-68L1369.80-68L1369.80-68Q1365.20-68 1365.20-69.80L1365.20-69.80L1365.20-69.80Q1365.20-71.20 1367.80-73.10L1367.80-73.10L1367.80-73.10Q1370.40-75 1372.00-75L1372.00-75ZM1486.00-129.60L1486.00-129.60L1486.00-129.60Q1486.60-129.20 1486.60-127.80L1486.60-127.80L1486.60-127.80Q1486.60-124.60 1483.50-115.90L1483.50-115.90L1483.50-115.90Q1480.40-107.20 1474.90-93.30L1474.90-93.30L1474.90-93.30Q1469.40-79.40 1466.40-70.60L1466.40-70.60L1466.40-70.60Q1466.60-70.80 1466.80-70.80L1466.80-70.80L1466.80-70.80Q1467.60-70.80 1468.50-69.40L1468.50-69.40L1468.50-69.40Q1469.40-68 1469.40-66.80L1469.40-66.80L1469.40-66.80Q1469.40-65.60 1467.40-65.60L1467.40-65.60L1467.40-65.60Q1464.80-65.60 1464.60-66.20L1464.60-66.20L1464.60-66.20Q1460.60-57.20 1454.50-37L1454.50-37L1454.50-37Q1448.40-16.80 1448.40-12.20L1448.40-12.20L1448.40-12.20Q1448.40-7.60 1451.00-7.60L1451.00-7.60L1451.00-7.60Q1454.00-7.60 1458.00-11.10L1458.00-11.10L1458.00-11.10Q1462.00-14.60 1465.10-18.20L1465.10-18.20L1465.10-18.20Q1468.20-21.80 1468.80-21.80L1468.80-21.80L1468.80-21.80Q1469.40-21.80 1469.40-20.80L1469.40-20.80L1469.40-20.80Q1469.40-20.20 1469.10-19.20L1469.10-19.20L1469.10-19.20Q1468.80-18.20 1468.50-17.50L1468.50-17.50L1468.50-17.50Q1468.20-16.80 1468.00-16.80L1468.00-16.80L1468.00-16.80Q1463.40-12.20 1455.20-6.30L1455.20-6.30L1455.20-6.30Q1447.00-0.40 1442.40-0.40L1442.40-0.40L1442.40-0.40Q1438.60-0.40 1438.60-4.60L1438.60-4.60L1438.60-4.60Q1438.60-15.40 1446.20-37.60L1446.20-37.60L1446.20-37.60Q1437.60-25.40 1425.30-12L1425.30-12L1425.30-12Q1413.00 1.40 1406.00 1.40L1406.00 1.40L1406.00 1.40Q1401.80 1.40 1401.80-4.60L1401.80-4.60L1401.80-4.60Q1401.80-13.20 1407.80-29.50L1407.80-29.50L1407.80-29.50Q1413.80-45.80 1422.10-59.10L1422.10-59.10L1422.10-59.10Q1430.40-72.40 1436.00-72.40L1436.00-72.40L1436.80-72.40L1436.80-72.40Q1438.20-72.40 1440.10-73.90L1440.10-73.90L1440.10-73.90Q1442.00-75.40 1444.20-75.40L1444.20-75.40L1444.20-75.40Q1447.20-75.40 1452.70-73.80L1452.70-73.80L1452.70-73.80Q1458.20-72.20 1458.60-72.20L1458.60-72.20L1458.60-72.20Q1458.80-72.20 1458.80-72.40L1458.80-72.40L1458.80-72.40Q1473.20-111.20 1473.60-112.40L1473.60-112.40L1473.60-112.40Q1471.40-112.40 1471.40-114.80L1471.40-114.80L1471.40-114.80Q1471.40-120.40 1477.40-129.40L1477.40-129.40L1477.40-129.40Q1478.20-131 1480.60-131L1480.60-131L1480.60-131Q1483.20-131 1486.00-129.60ZM1457.40-67.80L1457.40-67.80L1457.40-67.80Q1457.40-70 1445.60-70L1445.60-70L1445.60-70Q1442.20-70 1440.60-69.60L1440.60-69.60L1440.60-69.60Q1436.20-68.40 1423.70-45.40L1423.70-45.40L1423.70-45.40Q1411.20-22.40 1411.20-11.80L1411.20-11.80L1411.20-11.80Q1411.20-8.60 1413.20-8.60L1413.20-8.60L1413.20-8.60Q1415.20-8.60 1419.00-11.80L1419.00-11.80L1419.00-11.80Q1422.80-15 1426.00-18.60L1426.00-18.60L1426.00-18.60Q1429.20-22.20 1433.00-26.50L1433.00-26.50L1433.00-26.50Q1436.80-30.80 1437.00-31.20L1437.00-31.20L1437.00-31.20Q1442.40-37.20 1446.90-45.30L1446.90-45.30L1446.90-45.30Q1451.40-53.40 1454.30-60.40L1454.30-60.40L1454.30-60.40Q1457.20-67.40 1457.40-67.80Z" fill="#fffe00"></path></g></g><style>text {
  font-size: 64px;
  font-family: Arial Black;
  dominant-baseline: central;
  text-anchor: middle;
}</style></svg>