<svg width="1637.65625px" height="292.42503051757814px" xmlns="http://www.w3.org/2000/svg" viewBox="-568.828125 -71.21251525878907 1637.65625 292.42503051757814" style="background: rgba(0, 59, 100, 0);" preserveAspectRatio="xMidYMid"><defs><filter id="editing-golden" x="-100%" y="-100%" width="300%" height="300%"><feFlood flood-color="#000000" result="flood"></feFlood><feFlood flood-color="#dbff00" result="flood-light"></feFlood><feComposite operator="in" in="flood" in2="SourceAlpha" result="flood-comp"></feComposite><feGaussianBlur in="flood-comp" stdDeviation="3" result="blur"></feGaussianBlur><feOffset in="blur" dy="3" result="offset-blur"></feOffset><feComponentTransfer in="offset-blur" result="comp-blur"><feFuncA type="linear" slope="0.7" intercept="-0.1"></feFuncA></feComponentTransfer><feSpecularLighting surfaceScale="200" specularConstant="20" specularExponent="1" lighting-color="#fff" in="blur" result="specular"><fePointLight x="-250" y="-250" z="3500"></fePointLight></feSpecularLighting><feComponentTransfer in="specular" result="inspecular"><feFuncA type="linear" slope="-1" intercept="1"></feFuncA></feComponentTransfer><feComposite operator="in" in="flood-light" in2="inspecular" result="inspecular2"></feComposite><feComposite operator="in" in="inspecular2" in2="SourceAlpha" result="light"></feComposite><feMerge><feMergeNode in="comp-blur"></feMergeNode><feMergeNode in="SourceGraphic"></feMergeNode><feMergeNode in="light"></feMergeNode></feMerge></filter></defs><g filter="url(#editing-golden)"><g transform="translate(-338.47095704078674, 137.0800018310547)"><path d="M58.08 6.08L58.08 6.08L58.08 6.08Q54.88 6.08 53.12 3.92L53.12 3.92L53.12 3.92Q51.36 1.76 51.36-1.92L51.36-1.92L51.36-1.92Q51.36-4.32 51.92-7.20L51.92-7.20L51.92-7.20Q52.48-10.08 53.76-13.92L53.76-13.92L53.76-13.92Q55.04-17.76 55.92-20.32L55.92-20.32L55.92-20.32Q56.80-22.88 58.96-27.68L58.96-27.68L58.96-27.68Q61.12-32.48 61.84-34.08L61.84-34.08L61.84-34.08Q62.56-35.68 64.96-40.80L64.96-40.80L64.96-40.80Q67.36-45.92 67.36-45.92L67.36-45.92L67.36-45.92Q67.52-46.40 69.36-50.08L69.36-50.08L69.36-50.08Q71.20-53.76 72.40-56.16L72.40-56.16L72.40-56.16Q73.60-58.56 75.60-62.96L75.60-62.96L75.60-62.96Q77.60-67.36 78.96-70.88L78.96-70.88L78.96-70.88Q80.32-74.40 81.68-78.48L81.68-78.48L81.68-78.48Q83.04-82.56 83.76-86.08L83.76-86.08L83.76-86.08Q84.48-89.60 84.48-92.48L84.48-92.48L84.48-92.48Q84.48-96.96 82.08-98.48L82.08-98.48L82.08-98.48Q79.68-100 73.60-100L73.60-100L73.60-100Q59.04-100 44-91.52L44-91.52L44-91.52Q28.96-83.04 18.96-68.88L18.96-68.88L18.96-68.88Q8.96-54.72 8.96-39.84L8.96-39.84L8.96-39.84Q8.96-32.96 11.92-28.64L11.92-28.64L11.92-28.64Q14.88-24.32 20.96-24.32L20.96-24.32L20.96-24.32Q27.68-24.32 33.52-26.88L33.52-26.88L33.52-26.88Q39.36-29.44 42.48-32.48L42.48-32.48L42.48-32.48Q45.60-35.52 47.92-38.08L47.92-38.08L47.92-38.08Q50.24-40.64 50.72-40.64L50.72-40.64L50.72-40.64Q51.20-40.64 51.36-39.20L51.36-39.20L51.36-39.20Q49.76-32.32 41.28-26.40L41.28-26.40L41.28-26.40Q32.80-20.48 21.12-20.48L21.12-20.48L21.12-20.48Q13.44-20.48 7.84-25.92L7.84-25.92L7.84-25.92Q2.24-31.36 2.24-41.60L2.24-41.60L2.24-41.60Q2.24-55.04 9.52-67.12L9.52-67.12L9.52-67.12Q16.80-79.20 28-87.04L28-87.04L28-87.04Q39.20-94.88 51.92-99.44L51.92-99.44L51.92-99.44Q64.64-104 76-104L76-104L76-104Q92-104 92-91.84L92-91.84L92-91.84Q92-87.36 90-80.96L90-80.96L90-80.96Q88-74.56 85.76-69.60L85.76-69.60L85.76-69.60Q83.52-64.64 77.44-51.84L77.44-51.84L77.44-51.84Q75.84-48.48 75.04-46.72L75.04-46.72L75.04-46.72Q74.72-46.24 73.44-43.44L73.44-43.44L73.44-43.44Q72.16-40.64 70.96-38.16L70.96-38.16L70.96-38.16Q69.76-35.68 68.08-32L68.08-32L68.08-32Q66.40-28.32 65.12-25.04L65.12-25.04L65.12-25.04Q63.84-21.76 62.56-18.24L62.56-18.24L62.56-18.24Q61.28-14.72 60.64-11.68L60.64-11.68L60.64-11.68Q60-8.64 60-6.56L60-6.56L60-6.56Q60-1.60 63.68-1.60L63.68-1.60L63.68-1.60Q64.96-1.60 66.88-2.32L66.88-2.32L66.88-2.32Q68.80-3.04 71.52-4.64L71.52-4.64L71.52-4.64Q74.24-6.24 77.60-8.80L77.60-8.80L77.60-8.80Q93.44-20.80 116.16-51.60L116.16-51.60L116.16-51.60Q138.88-82.40 143.36-95.52L143.36-95.52L143.36-95.52Q145.76-98.56 149.28-98.56L149.28-98.56L149.28-98.56Q151.04-98.56 152.16-97.04L152.16-97.04L152.16-97.04Q153.28-95.52 153.28-92L153.28-92L153.28-92Q150.24-87.36 140.64-62.40L140.64-62.40L140.64-62.40Q131.04-37.44 127.84-26.40L127.84-26.40L127.84-26.40Q123.04-9.44 123.04-3.84L123.04-3.84L123.04-3.84Q123.04 1.76 127.04 1.76L127.04 1.76L127.04 1.76Q130.56 1.76 138.56-4.80L138.56-4.80L138.56-4.80Q140.48-6.56 141.28-6.56L141.28-6.56L141.28-6.56Q141.92-6.56 141.92-5.76L141.92-5.76L141.92-5.76Q141.92-4.96 141.36-3.76L141.36-3.76L141.36-3.76Q140.80-2.56 140.48-2.40L140.48-2.40L140.48-2.40Q127.52 9.28 119.68 9.28L119.68 9.28L119.68 9.28Q115.04 9.28 115.04 2.40L115.04 2.40L115.04 2.40Q115.04-5.12 122.24-29.28L122.24-29.28L122.24-29.28Q129.60-53.28 138.56-74.40L138.56-74.40L138.56-74.40Q127.20-55.84 107.84-34.16L107.84-34.16L107.84-34.16Q88.48-12.48 75.84-2.72L75.84-2.72L75.84-2.72Q70.24 1.60 65.76 3.84L65.76 3.84L65.76 3.84Q61.28 6.08 58.08 6.08ZM189.60-54.88L189.60-54.88L189.60-54.88Q189.28-51.68 185.44-45.76L185.44-45.76L185.44-45.76Q181.60-39.84 179.52-39.84L179.52-39.84L179.52-39.84Q178.88-39.84 178.88-40.80L178.88-40.80L178.88-40.80Q178.88-42.24 180.64-46.64L180.64-46.64L180.64-46.64Q182.40-51.04 182.40-52.32L182.40-52.32L182.40-52.32Q182.40-54.72 179.52-54.72L179.52-54.72L179.52-54.72Q179.04-54.72 174.24-53.92L174.24-53.92L174.24-53.92Q170.24-52.96 163.76-48.80L163.76-48.80L163.76-48.80Q157.28-44.64 157.28-39.68L157.28-39.68L157.28-39.68Q157.28-37.92 158.08-36.48L158.08-36.48L158.08-36.48Q160.16-32.32 165.36-29.44L165.36-29.44L165.36-29.44Q170.56-26.56 174.32-24L174.32-24L174.32-24Q178.08-21.44 178.08-17.28L178.08-17.28L178.08-17.28Q178.08-10.24 167.28-3.76L167.28-3.76L167.28-3.76Q156.48 2.72 148.80 2.72L148.80 2.72L148.80 2.72Q147.52 2.72 146.72 1.68L146.72 1.68L146.72 1.68Q145.92 0.64 145.92-0.48L145.92-0.48L145.92-0.48Q145.92-2.40 147.68-2.40L147.68-2.40L147.68-2.40Q152.96-2.40 162.48-5.68L162.48-5.68L162.48-5.68Q172-8.96 172-12.80L172-12.80L172-12.80Q172-15.04 168.40-18.08L168.40-18.08L168.40-18.08Q164.80-21.12 160.56-23.68L160.56-23.68L160.56-23.68Q156.32-26.24 152.72-29.84L152.72-29.84L152.72-29.84Q149.12-33.44 149.12-36.80L149.12-36.80L149.12-36.80Q149.12-39.52 151.04-41.92L151.04-41.92L151.04-41.92Q152.48-43.68 154.08-45.36L154.08-45.36L154.08-45.36Q155.68-47.04 157.12-48.32L157.12-48.32L157.12-48.32Q158.56-49.60 160.40-50.88L160.40-50.88L160.40-50.88Q162.24-52.16 163.68-53.12L163.68-53.12L163.68-53.12Q165.12-54.08 167.04-55.04L167.04-55.04L167.04-55.04Q168.96-56 170.08-56.56L170.08-56.56L170.08-56.56Q171.20-57.12 173.04-57.92L173.04-57.92L173.04-57.92Q174.88-58.72 175.60-58.96L175.60-58.96L175.60-58.96Q176.32-59.20 177.92-59.84L177.92-59.84L177.92-59.84Q179.52-60.48 179.68-60.48L179.68-60.48L179.68-60.48Q182.40-61.28 183.84-61.28L183.84-61.28L183.84-61.28Q189.60-61.28 189.60-54.88ZM226.40-49.76L226.40-49.76L226.40-49.76Q227.36-44.80 227.36-41.76L227.36-41.76L227.36-41.76Q227.36-38.24 224.96-35.76L224.96-35.76L224.96-35.76Q222.56-33.28 218.72-32.24L218.72-32.24L218.72-32.24Q214.88-31.20 211.84-30.80L211.84-30.80L211.84-30.80Q208.80-30.40 206.08-30.40L206.08-30.40L206.08-30.40Q204.48-30.40 202.48-30.48L202.48-30.48L202.48-30.48Q200.48-30.56 200.32-30.56L200.32-30.56L200.32-30.56Q195.04-17.12 195.04-9.44L195.04-9.44L195.04-9.44Q195.04-3.04 199.84-3.04L199.84-3.04L199.84-3.04Q203.20-3.04 207.68-7.28L207.68-7.28L207.68-7.28Q212.16-11.52 215.52-15.76L215.52-15.76L215.52-15.76Q218.88-20 219.52-20L219.52-20L219.52-20Q220.64-20 220.64-18.72L220.64-18.72L220.64-18.72Q220.64-14.24 211.84-6.32L211.84-6.32L211.84-6.32Q203.04 1.60 198.08 1.60L198.08 1.60L198.08 1.60Q194.08 1.60 190.80-0.88L190.80-0.88L190.80-0.88Q187.52-3.36 187.52-9.12L187.52-9.12L187.52-9.12Q187.52-10.88 188-13.28L188-13.28L188-13.28Q189.12-19.36 190.96-25.12L190.96-25.12L190.96-25.12Q192.80-30.88 192.96-32.16L192.96-32.16L192.96-32.16Q190.56-32.80 190.56-34.72L190.56-34.72L190.56-34.72Q190.56-36.48 193.28-36.48L193.28-36.48L194.40-36.48L194.40-36.48Q200.80-49.12 201.76-51.04L201.76-51.04L201.76-51.04Q206.24-59.52 218.88-59.52L218.88-59.52L218.88-59.52Q224.32-59.52 226.40-49.76ZM220.64-42.08L220.64-42.08L220.64-42.08Q220.64-46.08 219.84-48.96L219.84-48.96L219.84-48.96Q219.04-51.84 218-52.96L218-52.96L218-52.96Q216.96-54.08 215.84-54.08L215.84-54.08L215.84-54.08Q212.64-54.08 208.24-47.20L208.24-47.20L208.24-47.20Q203.84-40.32 201.76-35.04L201.76-35.04L201.76-35.04Q202.08-35.04 204.32-34.88L204.32-34.88L204.32-34.88Q206.56-34.72 208.16-34.72L208.16-34.72L208.16-34.72Q214.72-34.72 217.60-36.16L217.60-36.16L217.60-36.16Q220.48-37.60 220.64-42.08ZM292.96-103.68L292.96-103.68L292.96-103.68Q293.44-103.36 293.44-102.24L293.44-102.24L293.44-102.24Q293.44-99.68 290.96-92.72L290.96-92.72L290.96-92.72Q288.48-85.76 284.08-74.64L284.08-74.64L284.08-74.64Q279.68-63.52 277.28-56.48L277.28-56.48L277.28-56.48Q277.44-56.64 277.60-56.64L277.60-56.64L277.60-56.64Q278.24-56.64 278.96-55.52L278.96-55.52L278.96-55.52Q279.68-54.40 279.68-53.44L279.68-53.44L279.68-53.44Q279.68-52.48 278.08-52.48L278.08-52.48L278.08-52.48Q276-52.48 275.84-52.96L275.84-52.96L275.84-52.96Q272.64-45.76 267.76-29.60L267.76-29.60L267.76-29.60Q262.88-13.44 262.88-9.76L262.88-9.76L262.88-9.76Q262.88-6.08 264.96-6.08L264.96-6.08L264.96-6.08Q267.36-6.08 270.56-8.88L270.56-8.88L270.56-8.88Q273.76-11.68 276.24-14.56L276.24-14.56L276.24-14.56Q278.72-17.44 279.20-17.44L279.20-17.44L279.20-17.44Q279.68-17.44 279.68-16.64L279.68-16.64L279.68-16.64Q279.68-16.16 279.44-15.36L279.44-15.36L279.44-15.36Q279.20-14.56 278.96-14L278.96-14L278.96-14Q278.72-13.44 278.56-13.44L278.56-13.44L278.56-13.44Q274.88-9.76 268.32-5.04L268.32-5.04L268.32-5.04Q261.76-0.32 258.08-0.32L258.08-0.32L258.08-0.32Q255.04-0.32 255.04-3.68L255.04-3.68L255.04-3.68Q255.04-12.32 261.12-30.08L261.12-30.08L261.12-30.08Q254.24-20.32 244.40-9.60L244.40-9.60L244.40-9.60Q234.56 1.12 228.96 1.12L228.96 1.12L228.96 1.12Q225.60 1.12 225.60-3.68L225.60-3.68L225.60-3.68Q225.60-10.56 230.40-23.60L230.40-23.60L230.40-23.60Q235.20-36.64 241.84-47.28L241.84-47.28L241.84-47.28Q248.48-57.92 252.96-57.92L252.96-57.92L253.60-57.92L253.60-57.92Q254.72-57.92 256.24-59.12L256.24-59.12L256.24-59.12Q257.76-60.32 259.52-60.32L259.52-60.32L259.52-60.32Q261.92-60.32 266.32-59.04L266.32-59.04L266.32-59.04Q270.72-57.76 271.04-57.76L271.04-57.76L271.04-57.76Q271.20-57.76 271.20-57.92L271.20-57.92L271.20-57.92Q282.72-88.96 283.04-89.92L283.04-89.92L283.04-89.92Q281.28-89.92 281.28-91.84L281.28-91.84L281.28-91.84Q281.28-96.32 286.08-103.52L286.08-103.52L286.08-103.52Q286.72-104.80 288.64-104.80L288.64-104.80L288.64-104.80Q290.72-104.80 292.96-103.68ZM270.08-54.24L270.08-54.24L270.08-54.24Q270.08-56 260.64-56L260.64-56L260.64-56Q257.92-56 256.64-55.68L256.64-55.68L256.64-55.68Q253.12-54.72 243.12-36.32L243.12-36.32L243.12-36.32Q233.12-17.92 233.12-9.44L233.12-9.44L233.12-9.44Q233.12-6.88 234.72-6.88L234.72-6.88L234.72-6.88Q236.32-6.88 239.36-9.44L239.36-9.44L239.36-9.44Q242.40-12 244.96-14.88L244.96-14.88L244.96-14.88Q247.52-17.76 250.56-21.20L250.56-21.20L250.56-21.20Q253.60-24.64 253.76-24.96L253.76-24.96L253.76-24.96Q258.08-29.76 261.68-36.24L261.68-36.24L261.68-36.24Q265.28-42.72 267.60-48.32L267.60-48.32L267.60-48.32Q269.92-53.92 270.08-54.24ZM429.44-22.24L429.44-22.24L429.44-22.24Q430.08-22.24 430.08-20.80L430.08-20.80L430.08-20.80Q430.08-19.36 429.36-17.28L429.36-17.28L429.36-17.28Q428.64-15.20 427.68-13.60L427.68-13.60L427.68-13.60Q426.72-12 425.92-11.20L425.92-11.20L425.92-11.20Q416-1.12 399.20 5.44L399.20 5.44L399.20 5.44Q382.40 12 367.04 12L367.04 12L367.04 12Q341.76 12 328.48-0.16L328.48-0.16L328.48-0.16Q315.20-12.32 315.20-33.60L315.20-33.60L315.20-33.60Q315.20-35.36 315.36-37.28L315.36-37.28L315.36-37.28Q316.32-55.20 328.72-71.76L328.72-71.76L328.72-71.76Q341.12-88.32 359.20-98L359.20-98L359.20-98Q377.28-107.68 395.04-107.68L395.04-107.68L395.04-107.68Q412.80-107.68 418.88-99.68L418.88-99.68L418.88-99.68Q420.32-104 420.32-105.92L420.32-105.92L420.32-105.92Q420.32-106.24 420-107.20L420-107.20L420-107.20Q419.68-108.16 419.84-108.72L419.84-108.72L419.84-108.72Q420-109.28 421.12-109.28L421.12-109.28L421.12-109.28Q422.40-109.28 423.68-108.64L423.68-108.64L423.68-108.64Q424.96-108 424.96-107.04L424.96-107.04L424.96-107.04Q424.96-105.12 424.40-103.12L424.40-103.12L424.40-103.12Q423.84-101.12 422.96-98.48L422.96-98.48L422.96-98.48Q422.08-95.84 421.76-94.72L421.76-94.72L421.76-94.72Q423.20-90.88 423.20-85.92L423.20-85.92L423.20-85.92Q423.20-75.04 418.40-75.04L418.40-75.04L418.40-75.04Q415.68-75.04 414.56-76.16L414.56-76.16L414.56-76.16Q413.44-77.28 413.44-79.68L413.44-79.68L413.44-79.68Q413.44-81.12 413.60-82.48L413.60-82.48L413.60-82.48Q413.76-83.84 414.16-85.28L414.16-85.28L414.16-85.28Q414.56-86.72 414.88-87.76L414.88-87.76L414.88-87.76Q415.20-88.80 415.76-90.48L415.76-90.48L415.76-90.48Q416.32-92.16 416.64-92.96L416.64-92.96L416.64-92.96Q413.92-97.44 408.16-100.32L408.16-100.32L408.16-100.32Q402.40-103.20 395.04-103.20L395.04-103.20L395.04-103.20Q378.08-103.20 361.84-94L361.84-94L361.84-94Q345.60-84.80 335.04-69.28L335.04-69.28L335.04-69.28Q324.48-53.76 323.52-36.64L323.52-36.64L323.52-36.64Q323.52-35.36 323.52-34.08L323.52-34.08L323.52-34.08Q323.52-15.36 336.56-3.76L336.56-3.76L336.56-3.76Q349.60 7.84 368.96 7.84L368.96 7.84L368.96 7.84Q377.44 7.84 385.12 6.24L385.12 6.24L385.12 6.24Q392.80 4.64 397.84 2.56L397.84 2.56L397.84 2.56Q402.88 0.48 408-2.96L408-2.96L408-2.96Q413.12-6.40 415.52-8.64L415.52-8.64L415.52-8.64Q417.92-10.88 421.28-14.24L421.28-14.24L421.28-14.24Q424.64-17.60 425.12-18.08L425.12-18.08L425.12-18.08Q425.60-18.88 427.20-20.56L427.20-20.56L427.20-20.56Q428.80-22.24 429.44-22.24ZM484.64-12.80L484.64-12.80L484.64-12.80Q484.48-12.64 483.20-11.44L483.20-11.44L483.20-11.44Q481.92-10.24 481.12-9.60L481.12-9.60L481.12-9.60Q480.32-8.96 478.80-7.60L478.80-7.60L478.80-7.60Q477.28-6.24 476.16-5.44L476.16-5.44L476.16-5.44Q475.04-4.64 473.44-3.52L473.44-3.52L473.44-3.52Q471.84-2.40 470.64-1.84L470.64-1.84L470.64-1.84Q469.44-1.28 468.16-0.80L468.16-0.80L468.16-0.80Q466.88-0.32 465.76-0.32L465.76-0.32L465.76-0.32Q462.40-0.32 461.76-4.32L461.76-4.32L461.76-4.32Q461.76-11.04 467.04-29.12L467.04-29.12L467.04-29.12Q445.60 0.48 436.32 0.48L436.32 0.48L436.32 0.48Q432.48 0.48 432.48-5.28L432.48-5.28L432.48-5.28Q432.48-12.64 436.88-25.20L436.88-25.20L436.88-25.20Q441.28-37.76 447.68-47.92L447.68-47.92L447.68-47.92Q454.08-58.08 458.88-58.08L458.88-58.08L459.36-58.08L461.12-59.36L461.12-59.36Q462.56-60.96 465.60-60.96L465.60-60.96L465.60-60.96Q468.00-60.96 472.32-59.68L472.32-59.68L472.32-59.68Q476.64-58.40 477.12-58.40L477.12-58.40L477.12-58.40Q477.76-58.40 478.80-59.68L478.80-59.68L478.80-59.68Q479.84-60.96 481.28-60.96L481.28-60.96L481.28-60.96Q485.28-60.96 485.28-57.44L485.28-57.44L485.28-57.44Q485.28-56 484.72-54.24L484.72-54.24L484.72-54.24Q484.16-52.48 483.12-50.16L483.12-50.16L483.12-50.16Q482.08-47.84 481.92-47.36L481.92-47.36L481.92-47.36Q481.76-47.04 480.40-46.40L480.40-46.40L480.40-46.40Q479.04-45.76 478.88-45.28L478.88-45.28L478.88-45.28Q475.36-35.36 472.64-24.08L472.64-24.08L472.64-24.08Q469.92-12.80 469.92-10.24L469.92-10.24L469.92-10.24Q469.92-6.24 472.16-6.24L472.16-6.24L472.16-6.24Q474.40-6.24 477.68-8.96L477.68-8.96L477.68-8.96Q480.96-11.68 483.36-14.40L483.36-14.40L483.36-14.40Q485.76-17.12 485.92-17.12L485.92-17.12L485.92-17.12Q486.24-17.12 486.24-16.48L486.24-16.48L486.24-16.48Q486.24-14.08 484.64-12.80ZM474.56-55.36L474.08-55.36L474.08-55.36Q473.12-55.36 470.80-55.68L470.80-55.68L470.80-55.68Q468.48-56 466.88-56L466.88-56L466.88-56Q464.64-56 462.08-55.36L462.08-55.36L462.08-55.36Q458.08-54.24 448.96-36.40L448.96-36.40L448.96-36.40Q439.84-18.56 439.84-9.76L439.84-9.76L439.84-9.76Q439.84-7.04 441.44-7.04L441.44-7.04L441.44-7.04Q444.80-7.04 453.36-16.80L453.36-16.80L453.36-16.80Q461.92-26.56 464.64-30.72L464.64-30.72L464.64-30.72Q468.64-37.12 472.00-44.56L472.00-44.56L472.00-44.56Q475.36-52 475.36-54.40L475.36-54.40L475.36-54.40Q475.36-55.36 474.56-55.36L474.56-55.36ZM531.36-47.20L531.36-47.20L531.36-47.20Q530.08-45.44 527.92-43.76L527.92-43.76L527.92-43.76Q525.76-42.08 524.64-42.08L524.64-42.08L524.64-42.08Q523.68-42.08 523.68-43.04L523.68-43.04L523.68-43.04Q523.68-43.68 525.20-47.52L525.20-47.52L525.20-47.52Q526.72-51.36 526.72-52.80L526.72-52.80L526.72-52.80Q526.72-53.92 525.92-53.92L525.92-53.92L525.92-53.92Q520.32-53.92 509.36-36.64L509.36-36.64L509.36-36.64Q498.40-19.36 493.12-2.88L493.12-2.88L493.12-2.88Q492.16-1.60 490.08-0.32L490.08-0.32L490.08-0.32Q488 0.96 486.56 0.96L486.56 0.96L486.56 0.96Q485.60 0.96 485.12 0.16L485.12 0.16L485.12 0.16Q485.12-4.16 486.16-7.68L486.16-7.68L486.16-7.68Q487.20-11.20 488.80-11.84L488.80-11.84L488.80-11.84Q492.32-25.12 493.76-31.68L493.76-31.68L495.36-38.40L495.36-38.40Q495.68-39.52 495.68-40.96L495.68-40.96L495.68-40.96Q495.68-41.76 495.36-42.40L495.36-42.40L495.36-42.40Q495.04-43.04 495.04-43.68L495.04-43.68L495.04-43.68Q495.04-44.64 495.36-45.44L495.36-45.44L495.36-45.44Q497.92-55.52 500.56-59.20L500.56-59.20L500.56-59.20Q503.20-62.88 508.32-62.88L508.32-62.88L508.32-62.88Q510.24-62.88 510.56-61.60L510.56-61.60L510.56-61.60Q510.40-61.12 508.24-56L508.24-56L508.24-56Q506.08-50.88 504.24-46.40L504.24-46.40L504.24-46.40Q502.40-41.92 500.16-35.04L500.16-35.04L500.16-35.04Q497.92-28.16 496.64-22.40L496.64-22.40L496.64-22.40Q501.92-32.80 512.96-47.44L512.96-47.44L512.96-47.44Q524-62.08 531.20-62.08L531.20-62.08L531.20-62.08Q535.04-62.08 535.04-57.28L535.04-57.28L535.04-57.28Q535.04-52.32 531.36-47.20ZM584.48 8.64L584.48 8.64L584.48 8.64Q592 8.64 600.08 6.88L600.08 6.88L600.08 6.88Q608.16 5.12 614.48 1.12L614.48 1.12L614.48 1.12Q620.80-2.88 620.80-8L620.80-8L620.80-8Q620.80-8.80 620.64-9.44L620.64-9.44L620.64-9.44Q619.84-14.72 612.96-18.24L612.96-18.24L612.96-18.24Q606.08-21.76 597.04-24.24L597.04-24.24L597.04-24.24Q588-26.72 579.12-29.76L579.12-29.76L579.12-29.76Q570.24-32.80 564.08-38.88L564.08-38.88L564.08-38.88Q557.92-44.96 557.92-54.08L557.92-54.08L557.92-54.08Q557.92-65.76 564.40-75.76L564.40-75.76L564.40-75.76Q570.88-85.76 581.20-92.40L581.20-92.40L581.20-92.40Q591.52-99.04 603.12-103.36L603.12-103.36L603.12-103.36Q614.72-107.68 626.40-109.12L626.40-109.12L626.40-109.12Q633.28-110.08 639.36-110.08L639.36-110.08L639.36-110.08Q666.72-110.08 666.72-92L666.72-92L666.72-92Q666.72-82.56 657.76-73.76L657.76-73.76L657.76-73.76Q648.80-64.96 636.80-64.96L636.80-64.96L636.80-64.96Q635.68-64.96 635.12-65.36L635.12-65.36L635.12-65.36Q634.56-65.76 634.56-66.24L634.56-66.24L634.56-66.24Q634.56-66.56 634.72-66.96L634.72-66.96L634.72-66.96Q634.88-67.36 635.28-67.60L635.28-67.60L635.28-67.60Q635.68-67.84 636.16-68L636.16-68L636.16-68Q636.64-68.16 637.28-68.16L637.28-68.16L637.28-68.16Q645.44-68.16 652.80-74.32L652.80-74.32L652.80-74.32Q660.16-80.48 660.16-89.60L660.16-89.60L660.16-89.60Q660.16-94.24 658.16-97.52L658.16-97.52L658.16-97.52Q656.16-100.80 652.64-102.64L652.64-102.64L652.64-102.64Q649.12-104.48 645.04-105.28L645.04-105.28L645.04-105.28Q640.96-106.08 636.16-106.08L636.16-106.08L636.16-106.08Q633.76-106.08 631.44-105.92L631.44-105.92L631.44-105.92Q629.12-105.76 626.88-105.44L626.88-105.44L626.88-105.44Q611.68-103.52 598.32-97.68L598.32-97.68L598.32-97.68Q584.96-91.84 575.84-81.36L575.84-81.36L575.84-81.36Q566.72-70.88 566.72-58.08L566.72-58.08L566.72-58.08Q566.72-50.40 571.04-44.88L571.04-44.88L571.04-44.88Q575.36-39.36 581.84-36.80L581.84-36.80L581.84-36.80Q588.32-34.24 596-31.84L596-31.84L596-31.84Q603.68-29.44 610.48-27.84L610.48-27.84L610.48-27.84Q617.28-26.24 622.24-22.88L622.24-22.88L622.24-22.88Q627.20-19.52 628-14.72L628-14.72L628.16-12.80L628.16-12.80Q628.16-6.24 621.04 0L621.04 0L621.04 0Q613.92 6.24 602.40 10.16L602.40 10.16L602.40 10.16Q590.88 14.08 578.72 14.08L578.72 14.08L578.72 14.08Q562.40 14.08 562.40 2.24L562.40 2.24L562.40 2.24Q562.40-4.16 566.72-4.16L566.72-4.16L566.72-4.16Q567.20-4.16 567.52-3.12L567.52-3.12L567.52-3.12Q567.84-2.08 568.32-0.40L568.32-0.40L568.32-0.40Q568.80 1.28 569.44 2.40L569.44 2.40L569.44 2.40Q570.56 4.32 572.08 5.60L572.08 5.60L572.08 5.60Q573.60 6.88 575.52 7.52L575.52 7.52L575.52 7.52Q577.44 8.16 579.60 8.40L579.60 8.40L579.60 8.40Q581.76 8.64 584.48 8.64ZM701.44-56.64L701.44-56.64L701.44-56.64Q692.80-42.72 685.36-25.68L685.36-25.68L685.36-25.68Q677.92-8.64 677.92 0.80L677.92 0.80L677.92 0.80Q677.92 3.04 679.20 3.04L679.20 3.04L679.20 3.04Q679.68 3.04 682 1.60L682 1.60L682 1.60Q684.32 0.16 684.80 0.16L684.80 0.16L684.80 0.16Q685.60 0.16 685.60 1.12L685.60 1.12L685.60 1.12Q685.60 3.04 682.56 5.20L682.56 5.20L682.56 5.20Q679.52 7.36 676.64 7.36L676.64 7.36L676.64 7.36Q672.64 7.36 672.64 1.44L672.64 1.44L672.64 1.44Q672.64-5.44 677.12-18L677.12-18L677.12-18Q681.60-30.56 686.08-40.88L686.08-40.88L686.08-40.88Q690.56-51.20 690.56-52.48L690.56-52.48L690.56-52.48Q690.56-52.80 690.40-52.80L690.40-52.80L690.40-52.80Q689.76-52.80 687.52-50.40L687.52-50.40L687.52-50.40Q677.44-39.04 670.56-28.24L670.56-28.24L670.56-28.24Q663.68-17.44 661.36-11.68L661.36-11.68L661.36-11.68Q659.04-5.92 656.56-2.48L656.56-2.48L656.56-2.48Q654.08 0.96 650.72 0.96L650.72 0.96L650.72 0.96Q649.28 0.96 649.28-0.64L649.28-0.64L649.28-0.64Q649.28-2.08 650.08-3.84L650.08-3.84L650.08-3.84Q654.40-15.04 658.40-27.04L658.40-27.04L658.40-27.04Q662.40-39.04 666.96-53.84L666.96-53.84L666.96-53.84Q671.52-68.64 674.40-77.28L674.40-77.28L674.40-77.28Q674.88-78.72 674.88-80.16L674.88-80.16L674.88-80.16Q674.88-80.80 674.72-81.36L674.72-81.36L674.72-81.36Q674.56-81.92 674.56-82.24L674.56-82.24L674.56-82.24Q674.56-82.88 675.04-84.32L675.04-84.32L675.04-84.32Q678.72-94.56 681.28-97.84L681.28-97.84L681.28-97.84Q683.84-101.12 689.12-101.12L689.12-101.12L689.12-101.12Q691.20-101.12 691.52-99.68L691.52-99.68L691.52-99.68Q674.08-64.48 663.20-24.80L663.20-24.80L663.20-24.80Q687.04-62.08 699.20-62.08L699.20-62.08L699.20-62.08Q702.56-62.08 702.56-59.84L702.56-59.84L702.56-59.84Q702.56-58.40 701.44-56.64ZM743.04-47.68L743.04-47.68Q746.08-47.20 746.08-45.92L746.08-45.92L746.08-45.92Q746.08-44.64 743.68-43.44L743.68-43.44L743.68-43.44Q741.28-42.24 739.36-42.24L739.36-42.24L739.36-42.24Q739.36-23.52 729.60-10.24L729.60-10.24L729.60-10.24Q719.84 3.04 710.24 3.04L710.24 3.04L710.24 3.04Q700.96 3.04 700.96-10.40L700.96-10.40L700.96-10.40Q700.96-14.08 701.60-17.76L701.60-17.76L701.60-17.76Q702.40-21.92 704.48-28.48L704.48-28.48L704.48-28.48Q706.56-35.04 709.92-42.72L709.92-42.72L709.92-42.72Q713.28-50.40 718.16-55.76L718.16-55.76L718.16-55.76Q723.04-61.12 728-61.12L728-61.12L729.12-61.12L729.12-61.12Q729.12-63.36 730.40-64.96L730.40-64.96L730.40-64.96Q731.68-66.56 733.92-66.56L733.92-66.56L733.92-66.56Q736.16-66.40 737.92-57.20L737.92-57.20L737.92-57.20Q739.68-48 743.04-47.68L743.04-47.68ZM734.88-43.52L734.88-43.52L734.88-43.52Q733.44-44.32 731.36-49.20L731.36-49.20L731.36-49.20Q729.28-54.08 728.48-54.08L728.48-54.08L728.48-54.08Q723.52-54.08 716.96-39.44L716.96-39.44L716.96-39.44Q710.40-24.80 708.80-16.32L708.80-16.32L708.80-16.32Q708.16-12.64 708.16-9.60L708.16-9.60L708.16-9.60Q708.16-1.76 712.64-1.76L712.64-1.76L712.64-1.76Q719.04-1.76 726.96-14.80L726.96-14.80L726.96-14.80Q734.88-27.84 734.88-43.52ZM824.80-57.76L824.80-57.76L824.80-57.76Q824.80-56.80 821.92-50.40L821.92-50.40L821.92-50.40Q819.04-44 813.92-34.24L813.92-34.24L813.92-34.24Q808.80-24.48 803.84-16.48L803.84-16.48L803.84-16.48Q801.92-13.44 800.88-11.44L800.88-11.44L800.88-11.44Q799.84-9.44 799.52-8.56L799.52-8.56L799.52-8.56Q799.20-7.68 798.32-4.64L798.32-4.64L798.32-4.64Q797.44-1.60 796.80 0.64L796.80 0.64L796.80 0.64Q796.16 1.76 795.04 1.76L795.04 1.76L795.04 1.76Q793.44 1.76 791.76-0.24L791.76-0.24L791.76-0.24Q790.08-2.24 790.08-4L790.08-4L790.08-4Q790.08-4.64 790.16-6L790.16-6L790.16-6Q790.24-7.36 790.24-8.16L790.24-8.16L790.24-8.16Q790.24-30.08 781.44-51.36L781.44-51.36L781.44-51.36Q775.68-48 765.04-26.96L765.04-26.96L765.04-26.96Q754.40-5.92 754.40 1.28L754.40 1.28L754.40 1.28Q753.92 3.04 752.64 3.04L752.64 3.04L752.64 3.04Q751.04 3.04 749.12 0.80L749.12 0.80L749.12 0.80Q747.20-1.44 747.20-3.20L747.20-3.20L747.20-3.20Q747.20-3.68 747.36-3.84L747.36-3.84L747.36-3.84Q754.08-20.32 754.08-34.24L754.08-34.24L754.08-34.24Q754.08-41.12 752.96-45.52L752.96-45.52L752.96-45.52Q751.84-49.92 750.40-51.52L750.40-51.52L750.40-51.52Q748.96-53.12 747.36-53.12L747.36-53.12L747.36-53.12Q747.04-53.12 745.12-51.84L745.12-51.84L745.12-51.84Q743.20-50.56 742.56-50.56L742.56-50.56L742.56-50.56Q742.08-50.56 742.08-51.04L742.08-51.04L742.08-51.04Q742.08-53.28 746.24-56.96L746.24-56.96L746.24-56.96Q750.40-60.64 752.64-60.64L752.64-60.64L752.64-60.64Q759.20-60.64 759.20-38.08L759.20-38.08L759.20-38.08Q759.20-33.28 758.72-25.12L758.72-25.12L758.72-25.12Q763.68-34.24 772.08-47.04L772.08-47.04L772.08-47.04Q780.48-59.84 783.84-59.84L783.84-59.84L783.84-59.84Q785.12-61.60 787.04-61.60L787.04-61.60L787.04-61.60Q790.08-61.60 790.08-58.08L790.08-58.08L790.08-58.08Q790.08-57.60 789.92-56.72L789.92-56.72L789.92-56.72Q789.76-55.84 789.76-55.36L789.76-55.36L789.76-55.36Q789.76-54.40 791.20-50.24L791.20-50.24L791.20-50.24Q792.48-46.40 794.40-38.16L794.40-38.16L794.40-38.16Q796.32-29.92 797.76-23.76L797.76-23.76L797.76-23.76Q799.20-17.60 799.36-17.60L799.36-17.60L799.36-17.60Q801.60-17.60 809.28-32.64L809.28-32.64L809.28-32.64Q816.96-47.68 817.44-55.84L817.44-55.84L817.44-55.84Q817.44-56.80 816.80-58.72L816.80-58.72L816.80-58.72Q816.16-60.64 816.16-61.76L816.16-61.76L816.16-61.76Q816.16-63.68 817.76-65.44L817.76-65.44L817.92-65.44L817.92-65.44Q819.68-66.88 820.64-66.88L820.64-66.88L820.64-66.88Q822.72-66.88 823.76-63.76L823.76-63.76L823.76-63.76Q824.80-60.64 824.80-57.76ZM865.44-47.20L865.44-47.20L865.44-47.20Q864.16-45.44 862-43.76L862-43.76L862-43.76Q859.84-42.08 858.72-42.08L858.72-42.08L858.72-42.08Q857.76-42.08 857.76-43.04L857.76-43.04L857.76-43.04Q857.76-43.68 859.28-47.52L859.28-47.52L859.28-47.52Q860.80-51.36 860.80-52.80L860.80-52.80L860.80-52.80Q860.80-53.92 860-53.92L860-53.92L860-53.92Q854.40-53.92 843.44-36.64L843.44-36.64L843.44-36.64Q832.48-19.36 827.20-2.88L827.20-2.88L827.20-2.88Q826.24-1.60 824.16-0.32L824.16-0.32L824.16-0.32Q822.08 0.96 820.64 0.96L820.64 0.96L820.64 0.96Q819.68 0.96 819.20 0.16L819.20 0.16L819.20 0.16Q819.20-4.16 820.24-7.68L820.24-7.68L820.24-7.68Q821.28-11.20 822.88-11.84L822.88-11.84L822.88-11.84Q826.40-25.12 827.84-31.68L827.84-31.68L829.44-38.40L829.44-38.40Q829.76-39.52 829.76-40.96L829.76-40.96L829.76-40.96Q829.76-41.76 829.44-42.40L829.44-42.40L829.44-42.40Q829.12-43.04 829.12-43.68L829.12-43.68L829.12-43.68Q829.12-44.64 829.44-45.44L829.44-45.44L829.44-45.44Q832-55.52 834.64-59.20L834.64-59.20L834.64-59.20Q837.28-62.88 842.40-62.88L842.40-62.88L842.40-62.88Q844.32-62.88 844.64-61.60L844.64-61.60L844.64-61.60Q844.48-61.12 842.32-56L842.32-56L842.32-56Q840.16-50.88 838.32-46.40L838.32-46.40L838.32-46.40Q836.48-41.92 834.24-35.04L834.24-35.04L834.24-35.04Q832-28.16 830.72-22.40L830.72-22.40L830.72-22.40Q836-32.80 847.04-47.44L847.04-47.44L847.04-47.44Q858.08-62.08 865.28-62.08L865.28-62.08L865.28-62.08Q869.12-62.08 869.12-57.28L869.12-57.28L869.12-57.28Q869.12-52.32 865.44-47.20ZM906.88-47.68L906.88-47.68Q909.92-47.20 909.92-45.92L909.92-45.92L909.92-45.92Q909.92-44.64 907.52-43.44L907.52-43.44L907.52-43.44Q905.12-42.24 903.20-42.24L903.20-42.24L903.20-42.24Q903.20-23.52 893.44-10.24L893.44-10.24L893.44-10.24Q883.68 3.04 874.08 3.04L874.08 3.04L874.08 3.04Q864.80 3.04 864.80-10.40L864.80-10.40L864.80-10.40Q864.80-14.08 865.44-17.76L865.44-17.76L865.44-17.76Q866.24-21.92 868.32-28.48L868.32-28.48L868.32-28.48Q870.40-35.04 873.76-42.72L873.76-42.72L873.76-42.72Q877.12-50.40 882-55.76L882-55.76L882-55.76Q886.88-61.12 891.84-61.12L891.84-61.12L892.96-61.12L892.96-61.12Q892.96-63.36 894.24-64.96L894.24-64.96L894.24-64.96Q895.52-66.56 897.76-66.56L897.76-66.56L897.76-66.56Q900-66.40 901.76-57.20L901.76-57.20L901.76-57.20Q903.52-48 906.88-47.68L906.88-47.68ZM898.72-43.52L898.72-43.52L898.72-43.52Q897.28-44.32 895.20-49.20L895.20-49.20L895.20-49.20Q893.12-54.08 892.32-54.08L892.32-54.08L892.32-54.08Q887.36-54.08 880.80-39.44L880.80-39.44L880.80-39.44Q874.24-24.80 872.64-16.32L872.64-16.32L872.64-16.32Q872-12.64 872-9.60L872-9.60L872-9.60Q872-1.76 876.48-1.76L876.48-1.76L876.48-1.76Q882.88-1.76 890.80-14.80L890.80-14.80L890.80-14.80Q898.72-27.84 898.72-43.52ZM948.64-47.68L948.64-47.68Q951.68-47.20 951.68-45.92L951.68-45.92L951.68-45.92Q951.68-44.64 949.28-43.44L949.28-43.44L949.28-43.44Q946.88-42.24 944.96-42.24L944.96-42.24L944.96-42.24Q944.96-23.52 935.20-10.24L935.20-10.24L935.20-10.24Q925.44 3.04 915.84 3.04L915.84 3.04L915.84 3.04Q906.56 3.04 906.56-10.40L906.56-10.40L906.56-10.40Q906.56-14.08 907.20-17.76L907.20-17.76L907.20-17.76Q908-21.92 910.08-28.48L910.08-28.48L910.08-28.48Q912.16-35.04 915.52-42.72L915.52-42.72L915.52-42.72Q918.88-50.40 923.76-55.76L923.76-55.76L923.76-55.76Q928.64-61.12 933.60-61.12L933.60-61.12L934.72-61.12L934.72-61.12Q934.72-63.36 936-64.96L936-64.96L936-64.96Q937.28-66.56 939.52-66.56L939.52-66.56L939.52-66.56Q941.76-66.40 943.52-57.20L943.52-57.20L943.52-57.20Q945.28-48 948.64-47.68L948.64-47.68ZM940.48-43.52L940.48-43.52L940.48-43.52Q939.04-44.32 936.96-49.20L936.96-49.20L936.96-49.20Q934.88-54.08 934.08-54.08L934.08-54.08L934.08-54.08Q929.12-54.08 922.56-39.44L922.56-39.44L922.56-39.44Q916-24.80 914.40-16.32L914.40-16.32L914.40-16.32Q913.76-12.64 913.76-9.60L913.76-9.60L913.76-9.60Q913.76-1.76 918.24-1.76L918.24-1.76L918.24-1.76Q924.64-1.76 932.56-14.80L932.56-14.80L932.56-14.80Q940.48-27.84 940.48-43.52ZM1031.36-58.08L1031.36-58.08L1031.36-58.08Q1012-23.84 1008-2.88L1008-2.88L1008-2.88Q1007.52-1.28 1007.52 0.32L1007.52 0.32L1007.52 0.32Q1007.52 2.56 1008.96 2.56L1008.96 2.56L1008.96 2.56Q1009.60 2.56 1012.24 1.04L1012.24 1.04L1012.24 1.04Q1014.88-0.48 1015.36-0.48L1015.36-0.48L1015.36-0.48Q1016.16-0.48 1016.16 0.48L1016.16 0.48L1016.16 0.48Q1016.16 2.56 1012.64 4.80L1012.64 4.80L1012.64 4.80Q1009.12 7.04 1005.60 7.04L1005.60 7.04L1005.60 7.04Q1003.20 7.04 1002.08 5.52L1002.08 5.52L1002.08 5.52Q1000.96 4 1000.96 0.32L1000.96 0.32L1000.96 0.32Q1000.96-3.36 1002.56-8.96L1002.56-8.96L1002.56-8.96Q1004.16-14.56 1005.76-18.48L1005.76-18.48L1005.76-18.48Q1007.36-22.40 1010.32-28.96L1010.32-28.96L1010.32-28.96Q1013.28-35.52 1013.76-36.80L1013.76-36.80L1013.76-36.80Q1018.72-48.48 1018.72-50.72L1018.72-50.72L1018.72-50.72Q1018.72-51.84 1017.92-51.84L1017.92-51.84L1017.92-51.84Q1017.44-51.84 1016.16-51.04L1016.16-51.04L1016.16-51.04Q1007.84-45.44 998.56-32.96L998.56-32.96L998.56-32.96Q989.28-20.48 984.80-3.84L984.80-3.84L984.80-3.84Q984.48-2.56 981.44-0.88L981.44-0.88L981.44-0.88Q978.40 0.80 976.32 0.80L976.32 0.80L976.32 0.80Q974.40 0.80 974.40-0.64L974.40-0.64L974.40-0.96L974.56-1.28L974.56-1.28Q979.04-22.40 989.60-50.40L989.60-50.40L989.60-50.40Q990.40-52.48 990.40-53.28L990.40-53.28L990.40-53.28Q990.40-54.08 989.92-54.08L989.92-54.08L989.92-54.08Q989.12-54.08 987.52-52.32L987.52-52.32L987.52-52.32Q977.28-40.48 969.44-28.80L969.44-28.80L969.44-28.80Q961.60-17.12 958.48-11.04L958.48-11.04L958.48-11.04Q955.36-4.96 952.32-1.12L952.32-1.12L952.32-1.12Q949.28 2.72 945.92 2.72L945.92 2.72L945.92 2.72Q944.64 2.72 944.64 1.44L944.64 1.44L944.64 1.44Q944.64 0.32 945.36-1.44L945.36-1.44L945.36-1.44Q946.08-3.20 946.96-4.96L946.96-4.96L946.96-4.96Q947.84-6.72 948-7.04L948-7.04L948-7.04Q950.56-13.28 958.56-38.24L958.56-38.24L958.56-38.24Q959.20-40.16 959.20-41.12L959.20-41.12L959.20-41.12Q959.20-41.76 958.96-42.32L958.96-42.32L958.96-42.32Q958.72-42.88 958.72-43.20L958.72-43.20L958.72-43.20Q958.72-43.84 959.20-45.28L959.20-45.28L959.20-45.28Q962.72-55.36 965.44-58.72L965.44-58.72L965.44-58.72Q968.16-62.08 973.28-62.08L973.28-62.08L973.28-62.08Q975.36-62.08 975.68-60.64L975.68-60.64L975.68-60.64Q962.56-33.76 960-22.24L960-22.24L960-22.24Q986.72-64.80 1000.48-64.80L1000.48-64.80L1000.48-64.80Q1003.68-64.80 1003.68-62.72L1003.68-62.72L1003.68-62.72Q1003.68-61.28 1002.56-59.52L1002.56-59.52L1002.56-59.52Q988.64-36 984.96-18.08L984.96-18.08L984.96-18.08Q992.80-33.60 999.92-42.16L999.92-42.16L999.92-42.16Q1007.04-50.72 1021.12-60.96L1021.12-60.96L1021.12-60.96Q1024.16-63.36 1029.12-63.36L1029.12-63.36L1029.12-63.36Q1032.32-63.36 1032.32-61.12L1032.32-61.12L1032.32-61.12Q1032.32-60 1031.36-58.08ZM1098.08-99.68L1098.08-99.68L1098.08-99.68Q1089.28-81.44 1080.16-55.60L1080.16-55.60L1080.16-55.60Q1071.04-29.76 1066.72-10.40L1066.72-10.40L1066.72-10.40Q1066.56-9.92 1066.56-9.12L1066.56-9.12L1066.56-9.12Q1066.56-7.20 1068.16-7.20L1068.16-7.20L1068.16-7.20Q1069.12-7.20 1073.36-9.60L1073.36-9.60L1073.36-9.60Q1077.60-12 1078.72-12L1078.72-12L1078.72-12Q1079.68-12 1080.16-11.36L1080.16-11.36L1080.16-11.36Q1080.16-9.44 1072.16-4.24L1072.16-4.24L1072.16-4.24Q1064.16 0.96 1060.80 0.96L1060.80 0.96L1060.80 0.96Q1057.76 0.96 1057.76-1.92L1057.76-1.92L1057.76-1.92Q1057.76-3.52 1058.40-5.28L1058.40-5.28L1058.40-5.28Q1062.56-16.64 1066.16-27.84L1066.16-27.84L1066.16-27.84Q1069.76-39.04 1074.40-54.48L1074.40-54.48L1074.40-54.48Q1079.04-69.92 1081.28-77.28L1081.28-77.28L1081.28-77.28Q1081.76-78.72 1081.76-80.16L1081.76-80.16L1081.76-80.16Q1081.76-80.80 1081.52-81.36L1081.52-81.36L1081.52-81.36Q1081.28-81.92 1081.28-82.40L1081.28-82.40L1081.28-82.40Q1081.28-82.88 1081.76-84.32L1081.76-84.32L1081.76-84.32Q1084.96-94.40 1087.68-97.76L1087.68-97.76L1087.68-97.76Q1090.40-101.12 1095.68-101.12L1095.68-101.12L1095.68-101.12Q1097.92-101.12 1098.08-99.68ZM1097.60-60L1107.84-60L1108.48-62.24L1108.48-62.24Q1108.96-64.16 1108.96-64.96L1108.96-64.96L1108.96-64.96Q1108.96-65.60 1108.64-66.16L1108.64-66.16L1108.64-66.16Q1108.32-66.72 1108.32-67.20L1108.32-67.20L1108.32-67.20Q1108.32-67.68 1108.80-69.12L1108.80-69.12L1108.80-69.12Q1112-79.36 1114.64-82.72L1114.64-82.72L1114.64-82.72Q1117.28-86.08 1122.40-86.08L1122.40-86.08L1122.40-86.08Q1124.64-86.08 1124.96-84.64L1124.96-84.64L1124.96-84.64Q1121.44-77.12 1115.20-60L1115.20-60L1130.72-60L1130.72-60Q1135.20-60 1135.20-59.04L1135.20-59.04L1135.20-59.04Q1135.20-57.44 1127.84-56.56L1127.84-56.56L1127.84-56.56Q1120.48-55.68 1113.76-55.68L1113.76-55.68L1113.76-55.68Q1105.76-33.12 1100.80-12.48L1100.80-12.48L1100.80-12.48Q1100-9.28 1100-7.84L1100-7.84L1100-7.84Q1100-5.12 1101.76-5.12L1101.76-5.12L1101.76-5.12Q1104.96-5.12 1111.12-10.80L1111.12-10.80L1111.12-10.80Q1117.28-16.48 1117.76-16.48L1117.76-16.48L1117.76-16.48Q1118.56-16.48 1118.56-15.52L1118.56-15.52L1118.56-15.52Q1118.56-12.80 1116.80-12L1116.80-12L1116.80-12Q1102.08 1.28 1096.16 1.28L1096.16 1.28L1096.16 1.28Q1092.48 1.28 1092.48-3.36L1092.48-3.36L1092.48-3.36Q1092.48-5.92 1096.32-18.40L1096.32-18.40L1096.32-18.40Q1096.80-20 1106.56-55.04L1106.56-55.04L1106.56-55.04Q1102.72-54.40 1095.84-54.40L1095.84-54.40L1095.84-54.40Q1092.16-54.40 1092.16-55.84L1092.16-55.84L1092.16-55.84Q1092.16-56.96 1094.24-58.48L1094.24-58.48L1094.24-58.48Q1096.32-60 1097.60-60L1097.60-60ZM1188.80-103.68L1188.80-103.68L1188.80-103.68Q1189.28-103.36 1189.28-102.24L1189.28-102.24L1189.28-102.24Q1189.28-99.68 1186.80-92.72L1186.80-92.72L1186.80-92.72Q1184.32-85.76 1179.92-74.64L1179.92-74.64L1179.92-74.64Q1175.52-63.52 1173.12-56.48L1173.12-56.48L1173.12-56.48Q1173.28-56.64 1173.44-56.64L1173.44-56.64L1173.44-56.64Q1174.08-56.64 1174.80-55.52L1174.80-55.52L1174.80-55.52Q1175.52-54.40 1175.52-53.44L1175.52-53.44L1175.52-53.44Q1175.52-52.48 1173.92-52.48L1173.92-52.48L1173.92-52.48Q1171.84-52.48 1171.68-52.96L1171.68-52.96L1171.68-52.96Q1168.48-45.76 1163.60-29.60L1163.60-29.60L1163.60-29.60Q1158.72-13.44 1158.72-9.76L1158.72-9.76L1158.72-9.76Q1158.72-6.08 1160.80-6.08L1160.80-6.08L1160.80-6.08Q1163.20-6.08 1166.40-8.88L1166.40-8.88L1166.40-8.88Q1169.60-11.68 1172.08-14.56L1172.08-14.56L1172.08-14.56Q1174.56-17.44 1175.04-17.44L1175.04-17.44L1175.04-17.44Q1175.52-17.44 1175.52-16.64L1175.52-16.64L1175.52-16.64Q1175.52-16.16 1175.28-15.36L1175.28-15.36L1175.28-15.36Q1175.04-14.56 1174.80-14L1174.80-14L1174.80-14Q1174.56-13.44 1174.40-13.44L1174.40-13.44L1174.40-13.44Q1170.72-9.76 1164.16-5.04L1164.16-5.04L1164.16-5.04Q1157.60-0.32 1153.92-0.32L1153.92-0.32L1153.92-0.32Q1150.88-0.32 1150.88-3.68L1150.88-3.68L1150.88-3.68Q1150.88-12.32 1156.96-30.08L1156.96-30.08L1156.96-30.08Q1150.08-20.32 1140.24-9.60L1140.24-9.60L1140.24-9.60Q1130.40 1.12 1124.80 1.12L1124.80 1.12L1124.80 1.12Q1121.44 1.12 1121.44-3.68L1121.44-3.68L1121.44-3.68Q1121.44-10.56 1126.24-23.60L1126.24-23.60L1126.24-23.60Q1131.04-36.64 1137.68-47.28L1137.68-47.28L1137.68-47.28Q1144.32-57.92 1148.80-57.92L1148.80-57.92L1149.44-57.92L1149.44-57.92Q1150.56-57.92 1152.08-59.12L1152.08-59.12L1152.08-59.12Q1153.60-60.32 1155.36-60.32L1155.36-60.32L1155.36-60.32Q1157.76-60.32 1162.16-59.04L1162.16-59.04L1162.16-59.04Q1166.56-57.76 1166.88-57.76L1166.88-57.76L1166.88-57.76Q1167.04-57.76 1167.04-57.92L1167.04-57.92L1167.04-57.92Q1178.56-88.96 1178.88-89.92L1178.88-89.92L1178.88-89.92Q1177.12-89.92 1177.12-91.84L1177.12-91.84L1177.12-91.84Q1177.12-96.32 1181.92-103.52L1181.92-103.52L1181.92-103.52Q1182.56-104.80 1184.48-104.80L1184.48-104.80L1184.48-104.80Q1186.56-104.80 1188.80-103.68ZM1165.92-54.24L1165.92-54.24L1165.92-54.24Q1165.92-56 1156.48-56L1156.48-56L1156.48-56Q1153.76-56 1152.48-55.68L1152.48-55.68L1152.48-55.68Q1148.96-54.72 1138.96-36.32L1138.96-36.32L1138.96-36.32Q1128.96-17.92 1128.96-9.44L1128.96-9.44L1128.96-9.44Q1128.96-6.88 1130.56-6.88L1130.56-6.88L1130.56-6.88Q1132.16-6.88 1135.20-9.44L1135.20-9.44L1135.20-9.44Q1138.24-12 1140.80-14.88L1140.80-14.88L1140.80-14.88Q1143.36-17.76 1146.40-21.20L1146.40-21.20L1146.40-21.20Q1149.44-24.64 1149.60-24.96L1149.60-24.96L1149.60-24.96Q1153.92-29.76 1157.52-36.24L1157.52-36.24L1157.52-36.24Q1161.12-42.72 1163.44-48.32L1163.44-48.32L1163.44-48.32Q1165.76-53.92 1165.92-54.24Z" fill="#fffe00"></path></g></g><style>text {
  font-size: 64px;
  font-family: Arial Black;
  dominant-baseline: central;
  text-anchor: middle;
}</style></svg>